<svg version="1.1" xmlns="http://www.w3.org/2000/svg" viewBox="0 0 704.0924778990475 258.1999816894531" width="1408.184955798095" height="516.3999633789062">
  <!-- svg-source:excalidraw -->
  
  <defs>
    <style>
      @font-face {
        font-family: "Virgil";
        src: url("https://excalidraw.com/FG_Virgil.woff2");
      }
      @font-face {
        font-family: "Cascadia";
        src: url("https://excalidraw.com/Cascadia.woff2");
      }
    </style>
  </defs>
  <g transform="translate(10.39252672717248 157.99993896484375) rotate(0 32.79998779296875 10)"><path d="M31.89093030307527 -0.48059519651105376 C38.59131227167677 -0.6493413704716989, 47.33175538168108 0.384941022852501, 52.78844992154245 1.7247042365537535 C58.245144461403825 3.064467450255006, 63.090790222428886 5.357321192492131, 64.6310975422435 7.557984085696462 C66.1714048620581 9.758646978900792, 65.38309971461572 12.988571369060137, 62.030293840430105 14.928681595779736 C58.677487966244485 16.868791822499333, 51.17992743404922 18.540113827227056, 44.51426229712976 19.198645446014048 C37.8485971602103 19.85717706480104, 28.69773000021826 19.440522399148588, 22.036303018913358 18.879871308501684 C15.374876037608455 18.31922021785478, 7.992188395250453 17.72813381333276, 4.545700409300348 15.834738902132635 C1.099212423350243 13.941343990932511, 0.34524659048297046 9.615382620110667, 1.3573751032127248 7.5195018413009365 C2.369503615942479 5.423621062491206, 4.030398993609431 4.3002984547835315, 10.618471485678874 3.2594542292742474 C17.206543977748318 2.2186100037649634, 34.63888154451348 1.4310521407158403, 40.885810055629385 1.2744364882452324 C47.13273856674529 1.1178208357746244, 48.38137542496263 2.2479862855641883, 48.100042552374305 2.3197603144505994 M19.11403319278741 -0.7047423722271411 C24.889656034810432 -2.01128423197967, 35.54334897202271 -1.5782399973529349, 42.51052913893966 -0.9172080923109753 C49.47770930585661 -0.2561761872690158, 56.99707018274257 1.0301630671297821, 60.9171141942891 3.261449058024616 C64.83715820583564 5.4927350489194495, 67.2360191681737 9.94999129114417, 66.03079320821884 12.47050785305803 C64.82556724826398 14.991024414971887, 59.23607665755093 17.029877608858403, 53.68575843455995 18.38454842950777 C48.13544021156897 19.739219250157138, 39.332303061760626 20.6833216589353, 32.72888387027294 20.598532776954237 C26.125464678785246 20.513743894973175, 19.196439078104095 19.285809129845894, 14.065243285633805 17.87581513762139 C8.934047493163515 16.465821145396887, 3.5200719156574936 14.462105056955583, 1.9417091154512036 12.138568823607205 C0.36334631524491345 9.815032590258827, 1.342939417967898 5.858782232123183, 4.595066484396064 3.9345977375311207 C7.84719355082423 2.010413242939059, 18.560715456449046 0.8950595268983623, 21.4544715140202 0.5934618560548337 C24.34822757159135 0.291864185211305, 21.71174660375686 1.9992859908600884, 21.95760282982299 2.1250117124699486" stroke="#000000" stroke-width="1" fill="none"></path></g><g><g transform="translate(11.25441331975162 166.79995727539062) rotate(0 32.382087482397196 16.98848990697053)"><path d="M-1.2544133197516203 0.21464226953685284 C1.4175777272231285 15.283985182536039, 0.054150729247434026 26.02673348001622, 0.8329522960199749 34.69763290736102 M-0.9098779940977693 -0.7206530934199691 C-0.60491049084368 10.965284252479684, 1.0774428053218914 22.05710040916274, 1.049141685137037 34.37563497706525 M-0.7062976009831989 33.56585466715716 C14.539353061423162 32.29646321921754, 27.67054183528302 33.03256801360796, 63.25047914176574 29.06460287422316 M-0.16394134365629798 33.644752093993354 C24.39433679303632 33.23349173768086, 45.78265585350763 31.971880562436652, 65.15845175045868 30.810397091325388 M64.86264220862975 29.788003467027114 C65.04079382233141 20.732316356826093, 63.10109697393892 12.008521260174877, 66.01858828454604 4.283571106352669 M65.14615149754425 31.064888658937083 C65.65266287862701 25.31825106062849, 65.16760340868873 18.942608983865306, 64.01839618343254 3.0106582566805304" stroke="#000000" stroke-width="1" fill="none"></path></g></g><g><g transform="translate(20.79255114123498 163.59994506835938) rotate(0 25.443846805617227 3.8342984993010703)"><path d="M0.963695339486003 -0.6622676711529493 C9.315617458149791 0.8298214533676703, 42.60794961862266 6.833536058540146, 50.87719694785774 8.330864669755101 M0.010496663376688975 1.6044378561526536 C8.109160877987742 2.844240451132258, 41.51352566175163 5.974713936919967, 49.75970551662147 6.801987463906407" stroke="#000000" stroke-width="1" fill="none"></path></g></g><g><g transform="translate(22.39252672717248 175.59994506835938) rotate(0 26.076873906329297 -6.96313637950459)"><path d="M-0.6195953708142042 0.3118554275482892 C7.997244018192092 -1.833995814993978, 44.05687954214712 -9.967610843852162, 52.773343183472754 -12.35117837972939 M1.255978330168873 -0.5700244183279575 C9.688637109591314 -3.1280808831192557, 43.983122432821744 -12.117035089228303, 52.231302891168745 -14.238128186557443" stroke="#000000" stroke-width="1" fill="none"></path></g></g><g transform="translate(35.09848470452869 170.6281684415565) rotate(0 8.5 16)"><text x="8.5" y="23" font-family="Virgil, Segoe UI Emoji" font-size="20px" fill="#000000" text-anchor="middle" style="white-space: pre;" direction="ltr">R1</text></g><g transform="translate(311.99250231311 30.085879158128023) rotate(0 32.79998779296875 10)"><path d="M40.248193928536864 0.6198330371759901 C46.7704255770695 0.9886273176476306, 55.72630718514945 3.1988169399828, 59.8824391860518 4.781521530295815 C64.03857118695414 6.36422612060883, 65.79921551480446 8.22943532590744, 65.18498593395094 10.11606057905408 C64.57075635309742 12.00268583220072, 61.131595080999 14.378577513617309, 56.19706170093066 16.10127304917566 C51.26252832086232 17.82396858473401, 42.6503341919225 20.008787674437226, 35.57778565354093 20.452233792404193 C28.505237115159357 20.89567991037116, 19.569268596969973 20.100644264945643, 13.761770470641238 18.761949756977458 C7.9542723443125025 17.423255249009273, 2.6108484457473136 14.461836751966212, 0.7327968955685158 12.420066744595093 C-1.145254654610282 10.378296737223975, -0.4598982174673769 8.269189474149753, 2.4934611695684517 6.511329712750749 C5.44682055660428 4.753469951351744, 11.797891550304609 2.957611246077998, 18.452953217783488 1.872908176201065 C25.108014885262367 0.7882051063241324, 38.24232789450542 0.1116006595898309, 42.42383117444173 0.0031112934891535104 C46.60533445437804 -0.10537807261152388, 43.649649620276115 0.909382603905917, 43.54197289740136 1.2219719795970008 M43.007943072422044 0.4665467959880676 C49.042934870075186 1.20758587531872, 56.37388875293661 3.649323407182064, 60.27519154275668 5.43054191906819 C64.17649433257675 7.211760430954317, 67.71744950348116 9.104048244391766, 66.4157598113425 11.153857867304826 C65.11407011920383 13.203667490217885, 57.85286798154638 16.433660323311894, 52.465053389924705 17.729399656546548 C47.07723879830303 19.0251389897812, 40.82860517153334 18.9963560038635, 34.08887226161246 18.928293866712742 C27.349139351691573 18.860231729561985, 17.560050814253792 18.290686913758094, 12.0266559303994 17.32102683364201 C6.493261046545007 16.351366753525923, 1.9812812365636117 15.090562597451658, 0.8885029584861002 13.11033338601622 C-0.20427531959141132 11.130104174580783, 1.9946603213350564 7.554656658288737, 5.469986261934331 5.439651565029387 C8.945312202533605 3.324646471770038, 15.044865897088027 1.4125573782168699, 21.740458602081745 0.4203028264601265 C28.436051307075463 -0.5719517252966168, 41.77356586880364 -0.5318209223685676, 45.64354249189664 -0.5138757455110721 C49.51351911498964 -0.4959305686535765, 45.43300924140529 0.16139894531874965, 44.960318340639766 0.5279738876050999" stroke="#000000" stroke-width="1" fill="none"></path></g><g><g transform="translate(312.8543889056891 38.8858974686749) rotate(0 33.058866709262816 17.523072078094003)"><path d="M1.0338511299341917 1.027893053367734 C1.4635251198133477 5.220672086940186, 0.7834971451227607 14.72964865212661, 1.897822709412757 33.05735779035114 M-0.1899174815043807 0.4932503020390868 C-0.08782951559022872 8.225069705470876, -0.0023061792877779874 15.139475957414371, 0.2750949083207881 34.363671279914904 M-0.08911910500985032 33.38903379666828 C18.365556897074722 33.324509352450065, 35.11903541589313 33.51751045033663, 66.30765090003004 29.802546050403283 M1.0650555311082637 34.55289385414891 C14.555570471609615 32.53846763218301, 29.16894691654683 33.67585211865361, 63.97376550878724 30.820825369101033 M66.00596604361525 31.17284205183761 C64.60304350938065 22.426066822271334, 66.55889083232148 13.252398358452131, 66.03030732884397 1.9735584119044365 M64.50593651975831 31.24769595358895 C63.930873041736604 22.384002568265792, 64.05975089012337 15.436316224873792, 63.788291500465476 1.6275067534007253" stroke="#000000" stroke-width="1" fill="none"></path></g></g><g><g transform="translate(322.3925267271725 35.68588526164365) rotate(0 25.771066847378393 3.4603812470101047)"><path d="M0.620310677960515 0.6167358320206404 C9.374787141755222 1.8096187712003786, 43.567823900654915 4.925004037345449, 52.05529864020646 6.077656034752726 M-0.51316494544968 -0.10508180150762203 C8.199394645486027 1.288431360827138, 42.977333941850816 5.504202604598055, 51.55631059745327 7.025844295527786" stroke="#000000" stroke-width="1" fill="none"></path></g></g><g><g transform="translate(323.99250231311 47.68588526164365) rotate(0 26.24087239407004 -6.770386479869501)"><path d="M0.6167358320206404 0.8553474683314561 C9.276283403361838 -1.3238342862576247, 42.25832719815274 -10.287807796522976, 50.87764382772148 -12.45477984957397 M-0.518616585507989 0.2588009438663721 C8.589172171975177 -2.350084551796317, 44.290330108230314 -11.99533544205129, 53.00036137364805 -14.396120428070425" stroke="#000000" stroke-width="1" fill="none"></path></g></g><g transform="translate(331.1984602904663 42.71410863484084) rotate(0 14 16)"><text x="14" y="23" font-family="Virgil, Segoe UI Emoji" font-size="20px" fill="#000000" text-anchor="middle" style="white-space: pre;" direction="ltr">R2</text></g><g transform="translate(525.1925755552975 166.48590357219052) rotate(0 32.79998779296875 10)"><path d="M34.121419688759794 -0.9384747866572827 C40.62357207824999 -0.9734991637868111, 49.0560658349699 0.9384692598583673, 54.38701210564962 2.593606931053535 C59.717958376329335 4.248744602248703, 65.16723526516691 6.707339105792521, 66.10709731283808 8.992351240513724 C67.04695936050925 11.277363375234927, 63.83573166856822 14.672254054070272, 60.02618439167664 16.30367973938075 C56.21663711478505 17.93510542469123, 49.843745727843725 18.403914442700632, 43.24981365148855 18.7809053523766 C36.65588157513338 19.157896262052567, 27.118848401172198 19.392746623866064, 20.4625919335456 18.565625197436567 C13.806335465919002 17.73850377100707, 6.758802828407958 15.767270969240895, 3.3122748457289717 13.818176793799616 C-0.13425313695001462 11.869082618358336, -1.640689603715936 8.768107384790756, -0.21657596252831723 6.871060144788887 C1.2075376786593015 4.974012904787017, 5.428961280683776 3.509732185880992, 11.856956692854684 2.4358933537883978 C18.284952105025592 1.3620545216958033, 33.609045391077544 0.6137119395829952, 38.35139651049713 0.42802715223331944 C43.09374762991672 0.24234236488364372, 40.658615888479275 1.0671339957554664, 40.31106340937222 1.3217846296903435 M34.914997705555756 -0.9846790747380147 C41.580438224263965 -1.1038195362550287, 49.079757092980685 1.7938987957273411, 53.95851970508346 3.468454836771306 C58.83728231718624 5.1430108778152706, 62.98263123156523 7.3374296251820095, 64.18757337817239 9.062657171525775 C65.39251552477954 10.78788471786954, 64.60934491902411 12.210304000893462, 61.1881725847264 13.819820114833897 C57.767000250428694 15.429336228774332, 50.48557211679724 17.591764728428274, 43.66053937238615 18.719753855168385 C36.83550662797505 19.847742981908496, 27.022786944085183 21.217466859848944, 20.23797611825984 20.587754875274562 C13.453165292434498 19.95804289070018, 6.133145560009668 16.978720828794458, 2.9516744174340985 14.94148194772209 C-0.22979672514147076 12.904243066649723, -0.3861712369764507 10.61657839233324, 1.149149262806425 8.364321588840355 C2.684469762589301 6.112064785347469, 6.6140960368275294 2.8833908546079634, 12.163597416131353 1.4279411267647815 C17.713098795435176 -0.027508601078400252, 30.69982032812374 -0.08129382605468632, 34.446157538629365 -0.36837677821873527 C38.192494749134994 -0.6554597303827843, 34.916514073336984 -0.3093293419383614, 34.641620679165115 -0.2945565862195121" stroke="#000000" stroke-width="1" fill="none"></path></g><g><g transform="translate(526.0544621478766 175.2859218827374) rotate(0 32.72387145304265 17.23780294853833)"><path d="M0.17453728802502155 1.0894302558153868 C0.3075267570008372 6.549678867374649, -1.3138273105176517 12.387371399727973, 0.7413969986452495 35.231873331994045 M0.5867134248837829 -0.7562674349173903 C0.33422704764960287 10.417857870768467, -0.007512993517133415 21.39027389469437, -0.1854232450635398 32.6918892650234 M1.4642778389467632 33.4129155263605 C15.411230046475248 31.03000285725593, 28.390914479506197 31.93108888403145, 63.88620541482558 32.207529745999736 M1.4197691778032815 32.93533346935384 C24.79528877126282 33.15981067045446, 47.150229314337444 32.07942227103568, 64.1661267723455 30.29137859028207 M65.28735468774428 31.084082804624007 C64.35832320519175 18.67476391973979, 65.64051013060298 8.212266247624122, 65.7554364600717 1.6818519057415546 M65.16570548671623 30.955499979671107 C65.60404374968333 24.214550760221915, 65.66162210475726 16.92824574395876, 64.60824646014115 1.673365257651371" stroke="#000000" stroke-width="1" fill="none"></path></g></g><g><g transform="translate(535.59259996936 172.08590967570615) rotate(0 24.916620569899692 4.244304013624799)"><path d="M0.10472237281501284 0.6536581534892321 C8.474033788964153 1.9445261934151252, 42.80640539340675 6.092240661258499, 51.13267825059593 7.068829144909978 M-1.2994371107965708 -0.048775261268019676 C6.825745782479645 1.4941651797046263, 41.206170718297365 7.284238456065456, 50.14931450329721 8.537383288517594" stroke="#000000" stroke-width="1" fill="none"></path></g></g><g><g transform="translate(537.1925755552975 184.08590967570615) rotate(0 25.70325344630521 -7.002426185086364)"><path d="M0.6536581534892321 -0.0672729212790728 C9.411190825576584 -2.40765655823052, 43.42556382206579 -11.80873488970101, 51.86881693787873 -13.937579448893667 M-0.4623100452683866 -1.1481951502896846 C8.184905990852664 -3.392913516554982, 42.410365959697714 -11.264749259147795, 50.85190036663786 -12.997389817032964" stroke="#000000" stroke-width="1" fill="none"></path></g></g><g transform="translate(544.3985335326538 179.11413304890334) rotate(0 14 16)"><text x="14" y="23" font-family="Virgil, Segoe UI Emoji" font-size="20px" fill="#000000" text-anchor="middle" style="white-space: pre;" direction="ltr">R3</text></g><g><g transform="translate(74.39252672717248 181.99996948242188) rotate(0 118.12346924986565 -58.160745421674534)"><path d="M0.8681916378494926 1.4273764043675454 C58.29029731745993 -27.960489464178007, 116.72649088152103 -57.90304648762934, 236.57268075506474 -117.74886724771662 M-0.32574225533344736 -0.017659534770366928 C90.3647247828474 -44.079557076275435, 181.20704278538307 -89.03768775051302, 236.49752964262268 -116.41214588907927" stroke="#000000" stroke-width="1" fill="none"></path></g></g><g><g transform="translate(378.27676874884685 58.49425264015338) rotate(0 73.89733267859947 68.24044666659626)"><path d="M0.7008290678878335 1.520369697061285 C50.08582554216788 47.73479093630635, 99.87337578750265 96.40337914411919, 144.83535325334344 136.79395510658802 M0.849167207445027 -0.313061773395476 C28.085401749070538 27.33331729138091, 58.599496684779325 56.27279447385305, 147.093836289311 136.6564209278859" stroke="#000000" stroke-width="1" fill="none"></path></g></g><g transform="translate(71.99256334826623 140.0999755859375) rotate(0 20.79998779296875 9.244439019097229)"><text x="0" y="13.488878038194468" font-family="Virgil, Segoe UI Emoji" font-size="11.555548773871546px" fill="#000000" text-anchor="start" style="white-space: pre;" direction="ltr">g0/0/0</text></g><g transform="translate(261.3925267271725 37.1555548773872) rotate(0 20.79998779296875 9.244439019097229)"><text x="0" y="13.488878038194468" font-family="Virgil, Segoe UI Emoji" font-size="11.555548773871546px" fill="#000000" text-anchor="start" style="white-space: pre;" direction="ltr">g0/0/0</text></g><g transform="translate(387.792551141235 37.55551825629345) rotate(0 18 9)"><text x="0" y="13" font-family="Virgil, Segoe UI Emoji" font-size="11.555548773871546px" fill="#000000" text-anchor="start" style="white-space: pre;" direction="ltr">g0/0/1</text></g><g transform="translate(495.39246569201623 138.15561591254345) rotate(0 20.79998779296875 9.244439019097229)"><text x="0" y="13.488878038194468" font-family="Virgil, Segoe UI Emoji" font-size="11.555548773871546px" fill="#000000" text-anchor="start" style="white-space: pre;" direction="ltr">g0/0/0</text></g><g transform="translate(50.192484002563106 106.0999755859375) rotate(0 43.5 12)"><text x="0" y="18" font-family="Virgil, Segoe UI Emoji" font-size="15.381438265141755px" fill="#000000" text-anchor="start" style="white-space: pre;" direction="ltr">172.16.12.1/24</text></g><g transform="translate(224.89246569201623 15.5999755859375) rotate(0 48 12)"><text x="0" y="18" font-family="Virgil, Segoe UI Emoji" font-size="15.381438265141755px" fill="#000000" text-anchor="start" style="white-space: pre;" direction="ltr">172.16.12.2/24</text></g><g transform="translate(386.69251452014123 10) rotate(0 52.5 12)"><text x="0" y="18" font-family="Virgil, Segoe UI Emoji" font-size="15.381438265141755px" fill="#000000" text-anchor="start" style="white-space: pre;" direction="ltr">172.16.23.2/24</text></g><g transform="translate(614.0924778990475 161.8001251220703) rotate(0 40 24)"><text x="0" y="18" font-family="Virgil, Segoe UI Emoji" font-size="15.381438265141755px" fill="#000000" text-anchor="start" style="white-space: pre;" direction="ltr">loopback0</text><text x="0" y="42" font-family="Virgil, Segoe UI Emoji" font-size="15.381438265141755px" fill="#000000" text-anchor="start" style="white-space: pre;" direction="ltr">192.168.100.1</text></g><g><g transform="translate(75.19251452014123 182.59991455078125) rotate(0 223.46969275189372 6.202271448769437)"><path d="M-0.7501522153857498 0.31628605447060726 C143.92669166769207 3.0060697912253596, 286.94503061456044 6.685425797673297, 447.14344919087245 12.097733046000732 M-0.43105081491454866 0.3068098515381724 C142.46801560995888 4.837164360152121, 285.3596744990313 8.469646303597559, 447.6895377191731 11.748898353501582" stroke="#000000" stroke-width="1" fill="none"></path></g></g><g transform="translate(476.79249010607873 202.7555304633247) rotate(0 18 9)"><text x="0" y="13" font-family="Virgil, Segoe UI Emoji" font-size="11.555548773871546px" fill="#000000" text-anchor="start" style="white-space: pre;" direction="ltr">g0/0/1</text></g><g transform="translate(83.39252672717248 198.75556098090283) rotate(0 18 9)"><text x="0" y="13" font-family="Virgil, Segoe UI Emoji" font-size="11.555548773871546px" fill="#000000" text-anchor="start" style="white-space: pre;" direction="ltr">g0/0/1</text></g><g transform="translate(56.09253893420373 218.99996948242188) rotate(0 48 12)"><text x="0" y="18" font-family="Virgil, Segoe UI Emoji" font-size="15.381438265141755px" fill="#000000" text-anchor="start" style="white-space: pre;" direction="ltr">172.16.23.1/24</text></g><g transform="translate(433.5924778990475 224.19998168945312) rotate(0 47.5 12)"><text x="0" y="18" font-family="Virgil, Segoe UI Emoji" font-size="15.381438265141755px" fill="#000000" text-anchor="start" style="white-space: pre;" direction="ltr">172.16.13.3/24</text></g><g transform="translate(480.0924778990475 115.39999389648438) rotate(0 52.5 12)"><text x="0" y="18" font-family="Virgil, Segoe UI Emoji" font-size="15.381438265141755px" fill="#000000" text-anchor="start" style="white-space: pre;" direction="ltr">172.16.23.3/24</text></g></svg>