<?xml version="1.0" encoding="utf-8"?>
<!-- Generator: Adobe Illustrator 16.0.0, SVG Export Plug-In . SVG Version: 6.00 Build 0)  -->
<!DOCTYPE svg PUBLIC "-//W3C//DTD SVG 1.1//EN" "http://www.w3.org/Graphics/SVG/1.1/DTD/svg11.dtd">
<svg version="1.1" xmlns="http://www.w3.org/2000/svg" xmlns:xlink="http://www.w3.org/1999/xlink" x="0px" y="0px" width="539px"
	 height="350px" viewBox="0 0 539 350" enable-background="new 0 0 539 350" xml:space="preserve">
<g id="Layer_4">
</g>
<g id="Layer_2">
	<path fill="#89C9EF" stroke="#000000" stroke-width="4" stroke-miterlimit="10" d="M529.763,332.356
		c0,4.99-4.588,9.412-10.487,9.412H19.878c-5.9,0-11.131-4.422-11.131-9.412V16.135c0-4.989,5.231-8.659,11.131-8.659h499.397
		c5.899,0,10.487,3.669,10.487,8.659V332.356z"/>
	<g>
		<rect x="26.277" y="316.803" fill="none" width="162.791" height="27.907"/>
		<path d="M27.175,326.523l1.787-0.156c0.084,0.716,0.282,1.304,0.591,1.763s0.79,0.83,1.44,1.113s1.383,0.425,2.197,0.425
			c0.723,0,1.361-0.107,1.914-0.322c0.553-0.215,0.965-0.509,1.235-0.884s0.405-0.782,0.405-1.226c0-0.449-0.13-0.842-0.391-1.178
			c-0.261-0.336-0.69-0.616-1.289-0.845c-0.384-0.149-1.234-0.382-2.549-0.698c-1.315-0.315-2.236-0.613-2.764-0.894
			c-0.684-0.358-1.193-0.802-1.528-1.333s-0.503-1.125-0.503-1.782c0-0.723,0.205-1.397,0.615-2.026
			c0.41-0.627,1.009-1.104,1.797-1.43c0.788-0.326,1.664-0.488,2.627-0.488c1.061,0,1.997,0.17,2.808,0.513
			c0.811,0.342,1.434,0.845,1.87,1.509c0.436,0.664,0.67,1.416,0.703,2.256l-1.816,0.137c-0.098-0.904-0.428-1.588-0.991-2.051
			s-1.395-0.693-2.495-0.693c-1.146,0-1.981,0.211-2.505,0.631c-0.524,0.42-0.786,0.926-0.786,1.519
			c0,0.515,0.186,0.938,0.557,1.271c0.365,0.332,1.317,0.672,2.856,1.021s2.596,0.653,3.169,0.913
			c0.833,0.385,1.449,0.871,1.846,1.46s0.596,1.269,0.596,2.036c0,0.762-0.218,1.479-0.654,2.153
			c-0.436,0.674-1.063,1.198-1.88,1.571c-0.817,0.375-1.737,0.562-2.759,0.562c-1.295,0-2.381-0.189-3.257-0.566
			s-1.562-0.945-2.061-1.703S27.201,327.48,27.175,326.523z"/>
		<path d="M48.034,327.783l1.816,0.225c-0.287,1.062-0.817,1.885-1.592,2.471s-1.764,0.879-2.969,0.879
			c-1.517,0-2.72-0.467-3.608-1.4c-0.888-0.934-1.333-2.245-1.333-3.931c0-1.745,0.449-3.099,1.348-4.062
			c0.899-0.963,2.064-1.444,3.496-1.444c1.387,0,2.52,0.472,3.398,1.416c0.878,0.943,1.318,2.271,1.318,3.983
			c0,0.104-0.003,0.261-0.01,0.47h-7.734c0.065,1.139,0.387,2.012,0.967,2.616c0.58,0.605,1.302,0.908,2.168,0.908
			c0.645,0,1.195-0.169,1.65-0.508S47.767,328.525,48.034,327.783z M42.263,324.941h5.791c-0.078-0.873-0.299-1.527-0.664-1.963
			c-0.56-0.678-1.286-1.017-2.178-1.017c-0.807,0-1.486,0.271-2.036,0.812S42.322,324.036,42.263,324.941z"/>
		<path d="M51.355,328.027l1.738-0.273c0.098,0.697,0.37,1.23,0.815,1.602c0.445,0.373,1.069,0.558,1.87,0.558
			c0.807,0,1.406-0.165,1.797-0.493s0.586-0.714,0.586-1.156c0-0.397-0.172-0.709-0.518-0.938c-0.241-0.156-0.84-0.354-1.797-0.597
			c-1.289-0.325-2.183-0.606-2.681-0.844c-0.498-0.238-0.875-0.566-1.133-0.986s-0.386-0.885-0.386-1.393
			c0-0.462,0.106-0.89,0.317-1.283c0.211-0.395,0.5-0.722,0.864-0.981c0.273-0.202,0.646-0.373,1.118-0.513
			c0.472-0.141,0.978-0.211,1.519-0.211c0.814,0,1.528,0.117,2.144,0.353c0.616,0.235,1.069,0.552,1.362,0.952
			s0.495,0.936,0.605,1.605l-1.719,0.234c-0.078-0.534-0.304-0.951-0.679-1.25s-0.903-0.449-1.587-0.449
			c-0.807,0-1.383,0.133-1.729,0.4c-0.346,0.267-0.518,0.58-0.518,0.938c0,0.229,0.072,0.434,0.215,0.615
			c0.143,0.189,0.368,0.346,0.674,0.469c0.176,0.065,0.693,0.215,1.553,0.449c1.244,0.332,2.111,0.604,2.603,0.814
			c0.492,0.212,0.877,0.52,1.157,0.924c0.28,0.404,0.42,0.904,0.42,1.504c0,0.586-0.171,1.138-0.513,1.654
			c-0.342,0.518-0.835,0.918-1.479,1.201s-1.374,0.426-2.188,0.426c-1.348,0-2.375-0.28-3.081-0.84
			C51.998,329.957,51.55,329.127,51.355,328.027z"/>
		<path d="M61.355,328.027l1.738-0.273c0.098,0.697,0.37,1.23,0.815,1.602c0.445,0.373,1.069,0.558,1.87,0.558
			c0.807,0,1.406-0.165,1.797-0.493s0.586-0.714,0.586-1.156c0-0.397-0.172-0.709-0.518-0.938c-0.241-0.156-0.84-0.354-1.797-0.597
			c-1.289-0.325-2.183-0.606-2.681-0.844c-0.498-0.238-0.875-0.566-1.133-0.986s-0.386-0.885-0.386-1.393
			c0-0.462,0.106-0.89,0.317-1.283c0.211-0.395,0.5-0.722,0.864-0.981c0.273-0.202,0.646-0.373,1.118-0.513
			c0.472-0.141,0.978-0.211,1.519-0.211c0.814,0,1.528,0.117,2.144,0.353c0.616,0.235,1.069,0.552,1.362,0.952
			s0.495,0.936,0.605,1.605l-1.719,0.234c-0.078-0.534-0.304-0.951-0.679-1.25s-0.903-0.449-1.587-0.449
			c-0.807,0-1.383,0.133-1.729,0.4c-0.346,0.267-0.518,0.58-0.518,0.938c0,0.229,0.072,0.434,0.215,0.615
			c0.143,0.189,0.368,0.346,0.674,0.469c0.176,0.065,0.693,0.215,1.553,0.449c1.244,0.332,2.111,0.604,2.603,0.814
			c0.492,0.212,0.877,0.52,1.157,0.924c0.28,0.404,0.42,0.904,0.42,1.504c0,0.586-0.171,1.138-0.513,1.654
			c-0.342,0.518-0.835,0.918-1.479,1.201s-1.374,0.426-2.188,0.426c-1.348,0-2.375-0.28-3.081-0.84
			C61.998,329.957,61.55,329.127,61.355,328.027z"/>
		<path d="M72.068,318.828v-2.021h1.758v2.021L72.068,318.828L72.068,318.828z M72.068,331.122v-10.371h1.758v10.371H72.068z"/>
		<path d="M75.847,325.938c0-1.92,0.534-3.344,1.602-4.269c0.892-0.768,1.979-1.151,3.262-1.151c1.426,0,2.591,0.467,3.496,1.4
			c0.905,0.934,1.357,2.225,1.357,3.872c0,1.334-0.2,2.384-0.601,3.149c-0.401,0.765-0.983,1.358-1.748,1.781
			c-0.765,0.424-1.6,0.635-2.505,0.635c-1.452,0-2.625-0.465-3.521-1.396S75.847,327.688,75.847,325.938z M77.654,325.938
			c0,1.328,0.29,2.322,0.869,2.982c0.579,0.66,1.309,0.991,2.188,0.991c0.873,0,1.598-0.332,2.178-0.996s0.869-1.676,0.869-3.037
			c0-1.282-0.292-2.254-0.874-2.915c-0.582-0.66-1.307-0.99-2.173-0.99c-0.879,0-1.608,0.328-2.188,0.985
			S77.654,324.609,77.654,325.938z"/>
		<path d="M87.625,331.122v-10.371h1.582v1.476c0.762-1.14,1.862-1.709,3.301-1.709c0.625,0,1.2,0.111,1.724,0.336
			c0.524,0.226,0.917,0.52,1.177,0.885c0.26,0.365,0.443,0.797,0.547,1.299c0.065,0.326,0.098,0.895,0.098,1.709v6.377h-1.759
			v-6.309c0-0.717-0.068-1.252-0.205-1.606c-0.137-0.354-0.379-0.638-0.728-0.851c-0.349-0.211-0.757-0.316-1.226-0.316
			c-0.749,0-1.395,0.238-1.938,0.713s-0.815,1.377-0.815,2.705v5.664L87.625,331.122L87.625,331.122z"/>
	</g>
</g>
<g id="Layer_3">
	<path fill="#FF931E" stroke="#000000" stroke-width="4" stroke-miterlimit="10" d="M262,297c0,6.627-5.373,12-12,12H32
		c-6.627,0-12-5.373-12-12V31c0-6.627,5.373-12,12-12h218c6.627,0,12,5.373,12,12V297z"/>
	<path fill="#FF931E" stroke="#000000" stroke-width="4" stroke-miterlimit="10" d="M517,298c0,6.627-5.373,12-12,12H287
		c-6.627,0-12-5.373-12-12V32c0-6.627,5.373-12,12-12h218c6.627,0,12,5.373,12,12V298z"/>
</g>
<g id="Layer_1">
	<path fill="#99C675" stroke="#000000" stroke-width="4" stroke-miterlimit="10" d="M262,269.072c0,4.426-5.373,8.016-12,8.016H32
		c-6.627,0-12-3.59-12-8.016V26.603c0-4.427,5.373-8.016,12-8.016h218c6.627,0,12,3.589,12,8.016V269.072z"/>
	<path fill="#9AC47A" stroke="#000000" stroke-width="4" stroke-miterlimit="10" d="M517,269.072c0,4.426-5.373,8.016-12,8.016H287
		c-6.627,0-12-3.59-12-8.016V26.603c0-4.427,5.373-8.016,12-8.016h218c6.627,0,12,3.589,12,8.016V269.072z"/>
	<line fill="none" stroke="#000000" stroke-width="4" stroke-miterlimit="10" x1="141" y1="18.587" x2="141" y2="277.088"/>
	<line fill="none" stroke="#000000" stroke-width="4" stroke-miterlimit="10" x1="141" y1="147.837" x2="262" y2="147.837"/>
	<line fill="none" stroke="#000000" stroke-width="4" stroke-miterlimit="10" x1="275" y1="145.875" x2="517" y2="145.875"/>
	<line fill="none" stroke="#000000" stroke-width="4" stroke-miterlimit="10" x1="396" y1="145.875" x2="396" y2="277.088"/>
	<line fill="none" stroke="#000000" stroke-width="4" stroke-miterlimit="10" x1="396" y1="209.587" x2="517" y2="209.587"/>
	<g>
		<rect x="28.807" y="287.471" fill="none" width="162.791" height="27.906"/>
		<path d="M32.849,301.789l-3.799-14.314h1.943l2.178,9.385c0.234,0.982,0.436,1.959,0.605,2.93c0.365-1.531,0.58-2.412,0.645-2.646
			l2.725-9.668h2.285l2.051,7.246c0.514,1.797,0.885,3.486,1.113,5.068c0.182-0.906,0.42-1.943,0.713-3.115l2.246-9.199h1.904
			l-3.926,14.316h-1.826l-3.018-10.908c-0.254-0.912-0.404-1.471-0.449-1.68c-0.15,0.658-0.29,1.217-0.42,1.68l-3.037,10.908h-1.933
			V301.789z"/>
		<path d="M49.012,289.494v-2.02h1.758v2.02H49.012z M49.012,301.789v-10.371h1.758v10.371H49.012z"/>
		<path d="M53.445,301.789v-10.371h1.582v1.477c0.762-1.141,1.862-1.709,3.301-1.709c0.625,0,1.2,0.111,1.724,0.336
			s0.917,0.52,1.177,0.885c0.26,0.365,0.443,0.797,0.547,1.299c0.065,0.326,0.098,0.895,0.098,1.709v6.377h-1.759v-6.309
			c0-0.717-0.068-1.252-0.205-1.607c-0.137-0.354-0.379-0.637-0.728-0.85c-0.349-0.211-0.757-0.316-1.226-0.316
			c-0.749,0-1.395,0.238-1.938,0.713s-0.815,1.377-0.815,2.705v5.664h-1.758V301.789z"/>
		<path d="M71.296,301.789v-1.309c-0.658,1.029-1.625,1.543-2.9,1.543c-0.827,0-1.587-0.229-2.28-0.684
			c-0.693-0.457-1.23-1.092-1.611-1.908c-0.381-0.818-0.571-1.758-0.571-2.818c0-1.035,0.172-1.973,0.518-2.816
			s0.863-1.488,1.553-1.938c0.69-0.449,1.461-0.674,2.314-0.674c0.625,0,1.182,0.131,1.67,0.395
			c0.488,0.266,0.885,0.607,1.191,1.031v-5.137h1.748v14.314H71.296z M65.74,296.613c0,1.328,0.28,2.322,0.84,2.979
			c0.56,0.658,1.221,0.986,1.982,0.986c0.768,0,1.421-0.312,1.958-0.941s0.806-1.588,0.806-2.877c0-1.418-0.273-2.461-0.82-3.125
			c-0.547-0.662-1.221-0.994-2.021-0.994c-0.781,0-1.434,0.318-1.958,0.957C66.002,294.234,65.74,295.24,65.74,296.613z"/>
		<path d="M75.037,296.604c0-1.92,0.534-3.344,1.602-4.268c0.892-0.768,1.979-1.152,3.262-1.152c1.426,0,2.591,0.467,3.496,1.4
			c0.905,0.936,1.357,2.227,1.357,3.873c0,1.334-0.2,2.383-0.601,3.148c-0.401,0.766-0.983,1.359-1.748,1.783
			c-0.765,0.422-1.6,0.635-2.505,0.635c-1.452,0-2.625-0.465-3.521-1.396S75.037,298.355,75.037,296.604z M76.844,296.604
			c0,1.328,0.29,2.322,0.869,2.982c0.579,0.66,1.309,0.992,2.188,0.992c0.873,0,1.598-0.332,2.178-0.996s0.869-1.676,0.869-3.037
			c0-1.283-0.292-2.254-0.874-2.916c-0.582-0.66-1.307-0.99-2.173-0.99c-0.879,0-1.608,0.328-2.188,0.986
			C77.133,294.281,76.844,295.275,76.844,296.604z"/>
		<path d="M88.728,301.789l-3.174-10.371h1.816l1.65,5.986l0.615,2.227c0.026-0.109,0.205-0.822,0.537-2.139l1.65-6.074h1.807
			l1.553,6.018l0.518,1.98l0.596-2.002l1.777-5.996h1.709l-3.242,10.371h-1.826l-1.65-6.211l-0.4-1.768l-2.1,7.979H88.728z"/>
		<path d="M112.947,301.789h-1.758v-11.201c-0.423,0.404-0.978,0.809-1.665,1.211c-0.687,0.404-1.304,0.707-1.851,0.908v-1.699
			c0.983-0.461,1.842-1.021,2.578-1.68c0.736-0.658,1.256-1.295,1.562-1.914h1.133L112.947,301.789L112.947,301.789z"/>
	</g>
	<g>
		<rect x="283.419" y="287.496" fill="none" width="162.791" height="27.908"/>
		<path d="M287.462,301.816l-3.799-14.316h1.943l2.178,9.387c0.234,0.982,0.436,1.959,0.605,2.93
			c0.365-1.531,0.58-2.412,0.645-2.646l2.725-9.668h2.285l2.051,7.246c0.515,1.797,0.886,3.486,1.113,5.068
			c0.183-0.906,0.42-1.943,0.713-3.115l2.246-9.199h1.904l-3.926,14.316h-1.826l-3.018-10.908c-0.254-0.912-0.404-1.471-0.449-1.68
			c-0.15,0.658-0.29,1.217-0.42,1.68l-3.037,10.908h-1.934V301.816z"/>
		<path d="M303.624,289.521V287.5h1.758v2.021H303.624z M303.624,301.816v-10.371h1.758v10.371H303.624z"/>
		<path d="M308.059,301.816v-10.371h1.582v1.477c0.762-1.141,1.862-1.709,3.301-1.709c0.625,0,1.2,0.111,1.724,0.336
			c0.524,0.225,0.918,0.52,1.178,0.885s0.442,0.797,0.547,1.299c0.064,0.326,0.098,0.895,0.098,1.709v6.377h-1.758v-6.309
			c0-0.717-0.068-1.252-0.205-1.607c-0.137-0.354-0.379-0.637-0.729-0.85c-0.349-0.211-0.756-0.316-1.226-0.316
			c-0.749,0-1.396,0.238-1.938,0.713s-0.814,1.377-0.814,2.705v5.664h-1.759V301.816z"/>
		<path d="M325.909,301.816v-1.309c-0.658,1.029-1.625,1.543-2.9,1.543c-0.826,0-1.586-0.229-2.279-0.684
			c-0.693-0.457-1.23-1.092-1.611-1.91c-0.381-0.816-0.57-1.756-0.57-2.816c0-1.035,0.172-1.975,0.518-2.816
			c0.346-0.844,0.863-1.49,1.553-1.938c0.69-0.449,1.461-0.674,2.314-0.674c0.625,0,1.182,0.131,1.67,0.395s0.885,0.607,1.191,1.031
			V287.5h1.748v14.316H325.909z M320.354,296.641c0,1.328,0.28,2.322,0.84,2.979c0.56,0.658,1.222,0.986,1.981,0.986
			c0.769,0,1.422-0.314,1.959-0.941c0.537-0.629,0.806-1.588,0.806-2.877c0-1.418-0.272-2.461-0.819-3.125
			c-0.548-0.664-1.222-0.996-2.021-0.996c-0.781,0-1.434,0.32-1.958,0.957C320.616,294.262,320.354,295.268,320.354,296.641z"/>
		<path d="M329.649,296.633c0-1.92,0.534-3.344,1.602-4.27c0.893-0.768,1.979-1.15,3.262-1.15c1.427,0,2.592,0.467,3.496,1.4
			c0.906,0.934,1.357,2.225,1.357,3.871c0,1.334-0.199,2.385-0.601,3.15c-0.401,0.764-0.983,1.357-1.748,1.781
			s-1.601,0.635-2.505,0.635c-1.452,0-2.625-0.465-3.521-1.396C330.095,299.725,329.649,298.383,329.649,296.633z M331.456,296.633
			c0,1.326,0.291,2.322,0.869,2.982c0.579,0.66,1.309,0.99,2.188,0.99c0.873,0,1.599-0.332,2.179-0.996s0.869-1.676,0.869-3.037
			c0-1.283-0.292-2.254-0.874-2.914c-0.582-0.662-1.307-0.992-2.174-0.992c-0.879,0-1.607,0.33-2.188,0.986
			C331.745,294.311,331.456,295.303,331.456,296.633z"/>
		<path d="M343.341,301.816l-3.174-10.371h1.816l1.65,5.986l0.615,2.227c0.025-0.109,0.204-0.824,0.536-2.139l1.65-6.074h1.807
			l1.554,6.018l0.518,1.98l0.596-2.002l1.777-5.996h1.709l-3.242,10.371h-1.826l-1.65-6.211l-0.399-1.768l-2.101,7.979H343.341z"/>
		<path d="M370.178,300.129v1.688h-9.463c-0.014-0.422,0.055-0.83,0.204-1.221c0.241-0.645,0.627-1.279,1.157-1.904
			c0.531-0.625,1.297-1.348,2.3-2.168c1.557-1.275,2.607-2.287,3.154-3.031c0.547-0.746,0.82-1.451,0.82-2.113
			c0-0.697-0.249-1.285-0.747-1.764s-1.147-0.719-1.948-0.719c-0.846,0-1.522,0.254-2.031,0.762
			c-0.508,0.508-0.765,1.211-0.771,2.109l-1.808-0.186c0.124-1.348,0.59-2.375,1.396-3.082c0.807-0.705,1.891-1.059,3.252-1.059
			c1.374,0,2.461,0.381,3.262,1.143c0.802,0.762,1.201,1.705,1.201,2.832c0,0.572-0.117,1.137-0.352,1.689
			c-0.235,0.553-0.624,1.135-1.167,1.748c-0.543,0.611-1.447,1.451-2.71,2.52c-1.056,0.885-1.732,1.486-2.031,1.803
			c-0.299,0.314-0.547,0.633-0.742,0.951h7.022V300.129z"/>
	</g>
	<g>
		<rect x="30.232" y="30.943" fill="none" width="89.147" height="20.93"/>
		<path d="M36.014,30.145h1.416l-0.254,1.904c0.338,0.033,0.679,0.075,1.021,0.127c0.342,0.052,0.659,0.114,0.952,0.186v1.504
			c-0.358-0.091-0.719-0.169-1.084-0.234c-0.365-0.065-0.723-0.114-1.074-0.146l-0.557,4.18c0.436,0.169,0.869,0.353,1.299,0.552
			c0.43,0.199,0.815,0.433,1.157,0.703c0.342,0.27,0.619,0.591,0.83,0.962c0.211,0.371,0.317,0.814,0.317,1.328
			c0,0.547-0.111,1.032-0.332,1.455c-0.221,0.423-0.531,0.781-0.928,1.074s-0.875,0.522-1.436,0.688s-1.175,0.265-1.846,0.298
			l-0.322,2.324h-1.426l0.322-2.324c-0.527-0.039-1.03-0.096-1.509-0.171c-0.479-0.075-0.894-0.158-1.245-0.249v-1.621
			c0.41,0.143,0.858,0.26,1.343,0.352c0.485,0.092,1.024,0.153,1.616,0.186l0.576-4.395c-0.423-0.163-0.84-0.338-1.25-0.527
			c-0.41-0.189-0.776-0.415-1.099-0.679c-0.323-0.264-0.584-0.575-0.786-0.933c-0.202-0.358-0.303-0.785-0.303-1.279
			c0-0.404,0.084-0.802,0.254-1.196s0.433-0.749,0.791-1.064s0.811-0.576,1.357-0.781c0.546-0.205,1.198-0.327,1.953-0.366
			L36.014,30.145z M35.574,33.464c-0.814,0.072-1.408,0.262-1.782,0.571c-0.374,0.309-0.562,0.705-0.562,1.187
			c0,0.449,0.155,0.819,0.464,1.108s0.77,0.555,1.382,0.796L35.574,33.464z M35.691,43.22c0.879-0.065,1.519-0.26,1.919-0.586
			c0.4-0.326,0.601-0.768,0.601-1.328c0-0.234-0.042-0.444-0.127-0.63s-0.211-0.353-0.381-0.503s-0.379-0.29-0.63-0.42
			c-0.251-0.13-0.545-0.26-0.884-0.391L35.691,43.22z"/>
		<path d="M62.146,35.886c0,0.521-0.098,1.037-0.293,1.548c-0.195,0.511-0.498,0.968-0.908,1.372
			c-0.41,0.404-0.934,0.731-1.572,0.981s-1.4,0.376-2.285,0.376h-1.582v4.58h-1.738V31.98h3.594c0.631,0,1.237,0.07,1.816,0.21
			c0.579,0.14,1.089,0.366,1.528,0.679c0.439,0.312,0.79,0.716,1.05,1.211C62.016,34.575,62.146,35.176,62.146,35.886z
			 M60.34,35.964c0-0.82-0.269-1.449-0.806-1.885c-0.537-0.436-1.288-0.654-2.251-0.654h-1.777v5.254h1.621
			c1.029,0,1.821-0.225,2.378-0.674C60.062,37.556,60.34,36.876,60.34,35.964z"/>
		<path d="M71.082,44.744l-0.039-1.318c-0.534,0.527-1.076,0.908-1.626,1.143s-1.128,0.352-1.733,0.352
			c-0.56,0-1.039-0.072-1.436-0.215c-0.397-0.143-0.724-0.34-0.981-0.591c-0.257-0.251-0.446-0.545-0.566-0.884
			c-0.12-0.339-0.181-0.707-0.181-1.104c0-0.983,0.366-1.753,1.099-2.31c0.733-0.557,1.815-0.835,3.247-0.835h2.031v-0.859
			c0-0.58-0.186-1.043-0.557-1.392s-0.938-0.522-1.699-0.522c-0.553,0-1.099,0.062-1.636,0.186s-1.092,0.299-1.665,0.527v-1.533
			c0.215-0.078,0.454-0.155,0.718-0.229c0.264-0.074,0.542-0.142,0.835-0.2s0.599-0.106,0.918-0.142s0.641-0.054,0.967-0.054
			c0.592,0,1.126,0.065,1.602,0.195s0.877,0.329,1.206,0.596c0.329,0.267,0.581,0.602,0.757,1.006
			c0.176,0.404,0.264,0.879,0.264,1.426v6.758L71.082,44.744L71.082,44.744z M70.896,40.28h-2.158c-0.423,0-0.788,0.042-1.094,0.127
			s-0.557,0.205-0.752,0.361c-0.195,0.156-0.34,0.343-0.435,0.562c-0.095,0.219-0.142,0.464-0.142,0.737
			c0,0.189,0.029,0.37,0.088,0.542c0.059,0.172,0.153,0.326,0.283,0.459c0.13,0.133,0.299,0.239,0.508,0.317
			c0.209,0.078,0.462,0.117,0.762,0.117c0.391,0,0.838-0.119,1.343-0.356c0.505-0.237,1.037-0.614,1.597-1.128V40.28L70.896,40.28z"
			/>
		<path d="M75.779,34.939h1.514l0.068,1.582c0.287-0.338,0.563-0.62,0.83-0.845c0.267-0.225,0.529-0.405,0.786-0.542
			c0.257-0.137,0.519-0.233,0.786-0.288c0.267-0.055,0.543-0.083,0.83-0.083c1.009,0,1.772,0.298,2.29,0.894
			c0.518,0.596,0.776,1.493,0.776,2.69v6.396H81.96v-6.26c0-0.768-0.143-1.336-0.43-1.704c-0.287-0.368-0.713-0.552-1.279-0.552
			c-0.208,0-0.412,0.031-0.61,0.093c-0.198,0.062-0.405,0.169-0.62,0.322c-0.215,0.153-0.448,0.36-0.698,0.62
			c-0.25,0.26-0.532,0.586-0.845,0.977v6.504h-1.699V34.939L75.779,34.939z"/>
		<path d="M95.057,39.323c0,0.241-0.003,0.443-0.01,0.605c-0.007,0.162-0.016,0.316-0.029,0.459h-6.885
			c0,1.002,0.28,1.772,0.84,2.31c0.56,0.538,1.367,0.806,2.422,0.806c0.287,0,0.573-0.011,0.859-0.034s0.563-0.054,0.83-0.093
			s0.522-0.083,0.767-0.132c0.245-0.049,0.47-0.103,0.679-0.161v1.396c-0.462,0.13-0.985,0.236-1.567,0.317
			s-1.187,0.122-1.812,0.122c-0.84,0-1.562-0.114-2.168-0.342c-0.606-0.229-1.102-0.558-1.489-0.991
			c-0.387-0.433-0.674-0.963-0.859-1.592c-0.185-0.629-0.278-1.339-0.278-2.134c0-0.69,0.099-1.343,0.298-1.958
			c0.199-0.615,0.488-1.156,0.869-1.621c0.381-0.465,0.848-0.835,1.401-1.108c0.553-0.273,1.182-0.41,1.885-0.41
			c0.684,0,1.289,0.107,1.816,0.322s0.972,0.519,1.333,0.913s0.635,0.873,0.82,1.436S95.057,38.627,95.057,39.323z M93.289,39.08
			c0.02-0.436-0.023-0.835-0.127-1.196c-0.104-0.361-0.265-0.672-0.483-0.933c-0.218-0.261-0.49-0.464-0.815-0.61
			c-0.325-0.146-0.703-0.22-1.133-0.22c-0.371,0-0.709,0.072-1.016,0.215c-0.307,0.143-0.57,0.345-0.791,0.605
			c-0.221,0.26-0.4,0.573-0.537,0.938c-0.137,0.365-0.221,0.765-0.254,1.201H93.289z"/>
	</g>
	<g>
		<rect x="148.356" y="30.943" fill="none" width="75.194" height="20.931"/>
		<path d="M154.137,30.145h1.416l-0.254,1.904c0.338,0.033,0.679,0.075,1.021,0.127c0.342,0.052,0.659,0.114,0.952,0.186v1.504
			c-0.358-0.091-0.719-0.169-1.084-0.234s-0.723-0.114-1.074-0.146l-0.557,4.18c0.436,0.169,0.869,0.353,1.299,0.552
			c0.43,0.199,0.815,0.433,1.157,0.703c0.342,0.27,0.619,0.591,0.83,0.962s0.317,0.814,0.317,1.328c0,0.547-0.111,1.032-0.332,1.455
			c-0.221,0.423-0.531,0.781-0.928,1.074s-0.875,0.522-1.436,0.688s-1.175,0.265-1.846,0.298l-0.322,2.324h-1.426l0.322-2.324
			c-0.527-0.039-1.03-0.096-1.509-0.171c-0.479-0.075-0.894-0.158-1.245-0.249v-1.621c0.41,0.143,0.858,0.26,1.343,0.352
			c0.485,0.092,1.024,0.153,1.616,0.186l0.576-4.395c-0.423-0.163-0.84-0.338-1.25-0.527c-0.41-0.189-0.776-0.415-1.099-0.679
			c-0.323-0.264-0.584-0.575-0.786-0.933c-0.202-0.358-0.303-0.785-0.303-1.279c0-0.404,0.084-0.802,0.254-1.196
			s0.433-0.749,0.791-1.064s0.811-0.576,1.357-0.781c0.546-0.205,1.198-0.327,1.953-0.366L154.137,30.145z M153.698,33.464
			c-0.814,0.072-1.408,0.262-1.782,0.571c-0.374,0.309-0.562,0.705-0.562,1.187c0,0.449,0.155,0.819,0.464,1.108
			s0.77,0.555,1.382,0.796L153.698,33.464z M153.815,43.22c0.879-0.065,1.519-0.26,1.919-0.586c0.4-0.326,0.601-0.768,0.601-1.328
			c0-0.234-0.042-0.444-0.127-0.63s-0.211-0.353-0.381-0.503s-0.379-0.29-0.63-0.42c-0.251-0.13-0.545-0.26-0.884-0.391
			L153.815,43.22z"/>
		<path d="M180.27,35.886c0,0.521-0.098,1.037-0.293,1.548c-0.195,0.511-0.498,0.968-0.908,1.372
			c-0.41,0.404-0.934,0.731-1.572,0.981c-0.638,0.25-1.4,0.376-2.285,0.376h-1.582v4.58h-1.738V31.98h3.594
			c0.631,0,1.237,0.07,1.816,0.21c0.579,0.14,1.089,0.366,1.528,0.679c0.439,0.312,0.79,0.716,1.05,1.211
			C180.14,34.575,180.27,35.176,180.27,35.886z M178.463,35.964c0-0.82-0.269-1.449-0.806-1.885
			c-0.537-0.436-1.288-0.654-2.251-0.654h-1.777v5.254h1.621c1.029,0,1.821-0.225,2.378-0.674S178.463,36.876,178.463,35.964z"/>
		<path d="M189.206,44.744l-0.039-1.318c-0.534,0.527-1.076,0.908-1.626,1.143s-1.128,0.352-1.733,0.352
			c-0.56,0-1.039-0.072-1.436-0.215c-0.397-0.143-0.724-0.34-0.981-0.591c-0.257-0.251-0.446-0.545-0.566-0.884
			c-0.12-0.339-0.181-0.707-0.181-1.104c0-0.983,0.366-1.753,1.099-2.31c0.733-0.557,1.815-0.835,3.247-0.835h2.031v-0.859
			c0-0.58-0.186-1.043-0.557-1.392s-0.938-0.522-1.699-0.522c-0.553,0-1.099,0.062-1.636,0.186s-1.092,0.299-1.665,0.527v-1.533
			c0.215-0.078,0.454-0.155,0.718-0.229c0.264-0.074,0.542-0.142,0.835-0.2s0.599-0.106,0.918-0.142s0.641-0.054,0.967-0.054
			c0.592,0,1.126,0.065,1.602,0.195s0.877,0.329,1.206,0.596c0.329,0.267,0.581,0.602,0.757,1.006
			c0.176,0.404,0.264,0.879,0.264,1.426v6.758L189.206,44.744L189.206,44.744z M189.02,40.28h-2.158
			c-0.423,0-0.788,0.042-1.094,0.127s-0.557,0.205-0.752,0.361c-0.195,0.156-0.34,0.343-0.435,0.562
			c-0.095,0.219-0.142,0.464-0.142,0.737c0,0.189,0.029,0.37,0.088,0.542s0.153,0.326,0.283,0.459
			c0.13,0.133,0.299,0.239,0.508,0.317c0.209,0.078,0.462,0.117,0.762,0.117c0.391,0,0.838-0.119,1.343-0.356
			c0.505-0.237,1.037-0.614,1.597-1.128V40.28z"/>
		<path d="M193.903,34.939h1.514l0.068,1.582c0.287-0.338,0.563-0.62,0.83-0.845c0.267-0.225,0.529-0.405,0.786-0.542
			c0.257-0.137,0.519-0.233,0.786-0.288c0.267-0.055,0.543-0.083,0.83-0.083c1.009,0,1.772,0.298,2.29,0.894
			c0.518,0.596,0.776,1.493,0.776,2.69v6.396h-1.699v-6.26c0-0.768-0.143-1.336-0.43-1.704c-0.287-0.368-0.713-0.552-1.279-0.552
			c-0.208,0-0.412,0.031-0.61,0.093c-0.198,0.062-0.405,0.169-0.62,0.322c-0.215,0.153-0.448,0.36-0.698,0.62
			c-0.25,0.26-0.532,0.586-0.845,0.977v6.504h-1.699V34.939L193.903,34.939z"/>
		<path d="M213.18,39.323c0,0.241-0.003,0.443-0.01,0.605c-0.007,0.162-0.016,0.316-0.029,0.459h-6.885
			c0,1.002,0.28,1.772,0.84,2.31c0.56,0.538,1.367,0.806,2.422,0.806c0.287,0,0.573-0.011,0.859-0.034s0.563-0.054,0.83-0.093
			s0.522-0.083,0.767-0.132c0.245-0.049,0.47-0.103,0.679-0.161v1.396c-0.462,0.13-0.985,0.236-1.567,0.317
			s-1.187,0.122-1.812,0.122c-0.84,0-1.562-0.114-2.168-0.342c-0.606-0.229-1.102-0.558-1.489-0.991
			c-0.387-0.433-0.674-0.963-0.859-1.592c-0.185-0.629-0.278-1.339-0.278-2.134c0-0.69,0.099-1.343,0.298-1.958
			c0.199-0.615,0.488-1.156,0.869-1.621c0.381-0.465,0.848-0.835,1.401-1.108c0.553-0.273,1.182-0.41,1.885-0.41
			c0.684,0,1.289,0.107,1.816,0.322s0.972,0.519,1.333,0.913s0.635,0.873,0.82,1.436S213.18,38.627,213.18,39.323z M211.413,39.08
			c0.02-0.436-0.023-0.835-0.127-1.196c-0.104-0.361-0.265-0.672-0.483-0.933c-0.218-0.261-0.49-0.464-0.815-0.61
			c-0.325-0.146-0.703-0.22-1.133-0.22c-0.371,0-0.709,0.072-1.016,0.215c-0.307,0.143-0.57,0.345-0.791,0.605
			c-0.221,0.26-0.4,0.573-0.537,0.938c-0.137,0.365-0.221,0.765-0.254,1.201H211.413z"/>
	</g>
	<g>
		<rect x="402.225" y="216.943" fill="none" width="71.8" height="20.932"/>
		<path d="M408.006,216.145h1.416l-0.254,1.904c0.338,0.033,0.679,0.074,1.021,0.127c0.342,0.053,0.658,0.113,0.951,0.186v1.504
			c-0.356-0.092-0.719-0.17-1.084-0.234c-0.364-0.062-0.723-0.111-1.073-0.145l-0.558,4.18c0.437,0.17,0.869,0.354,1.299,0.551
			c0.431,0.199,0.815,0.434,1.157,0.703c0.342,0.271,0.618,0.592,0.83,0.963s0.317,0.814,0.317,1.328
			c0,0.547-0.111,1.031-0.332,1.455c-0.222,0.424-0.531,0.781-0.929,1.074c-0.396,0.293-0.875,0.521-1.436,0.688
			c-0.562,0.166-1.176,0.266-1.846,0.299l-0.322,2.322h-1.426l0.321-2.322c-0.526-0.039-1.029-0.098-1.509-0.172
			c-0.479-0.074-0.894-0.156-1.245-0.25v-1.619c0.41,0.143,0.857,0.26,1.344,0.352c0.485,0.092,1.023,0.152,1.615,0.186l0.576-4.395
			c-0.424-0.162-0.84-0.338-1.25-0.527s-0.775-0.416-1.099-0.68s-0.585-0.574-0.786-0.932c-0.201-0.359-0.303-0.785-0.303-1.279
			c0-0.404,0.084-0.803,0.254-1.197c0.17-0.393,0.434-0.748,0.791-1.062c0.356-0.316,0.811-0.576,1.356-0.781
			s1.197-0.328,1.953-0.367L408.006,216.145z M407.566,219.465c-0.814,0.072-1.408,0.262-1.782,0.57s-0.562,0.705-0.562,1.188
			c0,0.449,0.154,0.818,0.464,1.107c0.311,0.291,0.771,0.557,1.383,0.797L407.566,219.465z M407.684,229.221
			c0.879-0.064,1.52-0.26,1.92-0.586c0.399-0.326,0.601-0.768,0.601-1.328c0-0.234-0.043-0.443-0.127-0.631
			c-0.084-0.186-0.211-0.352-0.381-0.502s-0.379-0.289-0.63-0.42c-0.252-0.131-0.547-0.26-0.885-0.391L407.684,229.221z"/>
		<path d="M434.139,221.887c0,0.521-0.098,1.037-0.293,1.549c-0.194,0.51-0.498,0.967-0.908,1.371
			c-0.409,0.404-0.934,0.73-1.571,0.98c-0.638,0.252-1.4,0.377-2.285,0.377h-1.582v4.58h-1.738V217.98h3.595
			c0.631,0,1.235,0.068,1.815,0.209s1.089,0.365,1.528,0.68c0.438,0.312,0.79,0.717,1.05,1.211S434.139,221.178,434.139,221.887z
			 M432.332,221.965c0-0.82-0.27-1.449-0.806-1.885c-0.537-0.436-1.288-0.654-2.251-0.654h-1.777v5.254h1.621
			c1.029,0,1.821-0.225,2.378-0.674S432.332,222.877,432.332,221.965z"/>
		<path d="M443.074,230.744l-0.039-1.318c-0.533,0.527-1.076,0.908-1.626,1.143s-1.128,0.352-1.733,0.352
			c-0.561,0-1.039-0.07-1.436-0.215c-0.397-0.143-0.726-0.34-0.981-0.59c-0.256-0.252-0.446-0.547-0.565-0.885
			c-0.12-0.338-0.182-0.707-0.182-1.104c0-0.982,0.366-1.754,1.1-2.311c0.732-0.557,1.814-0.834,3.247-0.834h2.03v-0.859
			c0-0.58-0.186-1.043-0.557-1.393s-0.938-0.521-1.699-0.521c-0.553,0-1.099,0.062-1.636,0.186
			c-0.537,0.125-1.093,0.299-1.665,0.527v-1.533c0.215-0.078,0.454-0.154,0.718-0.229c0.265-0.076,0.542-0.143,0.835-0.201
			c0.293-0.057,0.601-0.104,0.918-0.141c0.318-0.037,0.642-0.055,0.967-0.055c0.593,0,1.127,0.064,1.603,0.195
			c0.475,0.131,0.877,0.328,1.206,0.596s0.581,0.602,0.757,1.006s0.264,0.879,0.264,1.426v6.758H443.074L443.074,230.744z
			 M442.889,226.281h-2.157c-0.425,0-0.787,0.043-1.095,0.127c-0.307,0.084-0.557,0.205-0.752,0.361
			c-0.194,0.154-0.34,0.344-0.435,0.561c-0.095,0.219-0.143,0.465-0.143,0.738c0,0.188,0.029,0.369,0.089,0.541
			c0.059,0.174,0.151,0.326,0.282,0.459c0.131,0.135,0.3,0.24,0.509,0.316c0.209,0.078,0.463,0.117,0.762,0.117
			c0.391,0,0.838-0.119,1.343-0.355s1.036-0.613,1.597-1.127V226.281L442.889,226.281z"/>
		<path d="M447.771,220.939h1.514l0.068,1.582c0.286-0.338,0.562-0.619,0.829-0.846c0.269-0.225,0.529-0.404,0.786-0.541
			s0.52-0.232,0.786-0.289c0.267-0.055,0.543-0.082,0.83-0.082c1.01,0,1.772,0.299,2.29,0.895s0.776,1.492,0.776,2.689v6.396h-1.699
			v-6.26c0-0.77-0.144-1.336-0.431-1.705c-0.286-0.367-0.713-0.551-1.278-0.551c-0.209,0-0.412,0.029-0.61,0.092
			c-0.197,0.062-0.404,0.17-0.62,0.322c-0.215,0.152-0.446,0.359-0.697,0.619c-0.251,0.262-0.532,0.586-0.846,0.979v6.504h-1.698
			V220.939z"/>
		<path d="M467.049,225.324c0,0.24-0.004,0.443-0.01,0.604c-0.006,0.162-0.016,0.316-0.029,0.459h-6.885
			c0,1.004,0.279,1.773,0.84,2.311c0.562,0.539,1.367,0.807,2.422,0.807c0.287,0,0.572-0.012,0.859-0.035
			c0.287-0.021,0.562-0.053,0.83-0.092c0.268-0.039,0.521-0.084,0.767-0.133s0.47-0.102,0.679-0.16v1.396
			c-0.463,0.131-0.983,0.234-1.566,0.316c-0.583,0.08-1.188,0.121-1.812,0.121c-0.84,0-1.562-0.113-2.168-0.342
			c-0.605-0.229-1.102-0.559-1.488-0.99c-0.388-0.432-0.675-0.965-0.859-1.592c-0.185-0.629-0.278-1.34-0.278-2.135
			c0-0.689,0.101-1.342,0.298-1.957c0.198-0.615,0.488-1.156,0.869-1.621c0.381-0.467,0.85-0.836,1.401-1.109
			c0.552-0.271,1.182-0.41,1.885-0.41c0.685,0,1.289,0.107,1.816,0.322c0.526,0.215,0.972,0.521,1.333,0.914s0.635,0.871,0.82,1.436
			C466.956,223.998,467.049,224.627,467.049,225.324z M465.281,225.08c0.02-0.436-0.023-0.836-0.127-1.197
			c-0.104-0.359-0.267-0.672-0.483-0.932s-0.489-0.465-0.815-0.611c-0.325-0.145-0.702-0.219-1.133-0.219
			c-0.371,0-0.709,0.072-1.016,0.215s-0.57,0.346-0.791,0.605c-0.221,0.258-0.4,0.57-0.537,0.938
			c-0.137,0.365-0.221,0.766-0.254,1.201H465.281L465.281,225.08z"/>
	</g>
	<g>
		<rect x="403.225" y="153.624" fill="none" width="74.899" height="20.931"/>
		<path d="M409.006,152.824h1.416l-0.254,1.904c0.338,0.032,0.679,0.073,1.021,0.127c0.342,0.053,0.658,0.112,0.951,0.186v1.504
			c-0.356-0.092-0.719-0.17-1.084-0.233c-0.364-0.064-0.723-0.113-1.073-0.146l-0.558,4.18c0.437,0.171,0.869,0.354,1.299,0.553
			c0.431,0.197,0.815,0.433,1.157,0.703c0.342,0.27,0.618,0.591,0.83,0.962s0.317,0.813,0.317,1.328c0,0.547-0.111,1.03-0.332,1.454
			c-0.222,0.425-0.531,0.781-0.929,1.074c-0.396,0.293-0.875,0.522-1.436,0.688c-0.562,0.166-1.176,0.265-1.846,0.298l-0.322,2.324
			h-1.426l0.321-2.324c-0.526-0.039-1.029-0.096-1.509-0.171c-0.479-0.075-0.894-0.157-1.245-0.249v-1.621
			c0.41,0.143,0.857,0.26,1.344,0.352c0.485,0.093,1.023,0.152,1.615,0.187l0.576-4.396c-0.424-0.162-0.84-0.338-1.25-0.526
			c-0.41-0.189-0.775-0.415-1.099-0.68c-0.323-0.264-0.585-0.574-0.786-0.933s-0.303-0.785-0.303-1.279
			c0-0.403,0.084-0.803,0.254-1.195c0.17-0.394,0.434-0.749,0.791-1.064c0.356-0.315,0.811-0.576,1.356-0.781
			s1.197-0.327,1.953-0.365L409.006,152.824z M408.566,156.144c-0.814,0.071-1.408,0.262-1.782,0.57
			c-0.374,0.31-0.562,0.704-0.562,1.188c0,0.449,0.154,0.817,0.464,1.107c0.311,0.29,0.771,0.557,1.383,0.797L408.566,156.144z
			 M408.684,165.9c0.879-0.064,1.52-0.26,1.92-0.586c0.399-0.326,0.601-0.769,0.601-1.328c0-0.234-0.043-0.444-0.127-0.63
			c-0.084-0.187-0.211-0.354-0.381-0.503c-0.17-0.15-0.379-0.289-0.63-0.42c-0.252-0.132-0.547-0.261-0.885-0.392L408.684,165.9z"/>
		<path d="M435.139,158.566c0,0.521-0.098,1.037-0.293,1.548c-0.194,0.511-0.498,0.968-0.908,1.372
			c-0.409,0.404-0.934,0.729-1.571,0.98s-1.4,0.376-2.285,0.376h-1.582v4.58h-1.738v-12.764h3.595c0.631,0,1.235,0.07,1.815,0.21
			s1.089,0.366,1.528,0.679c0.438,0.313,0.79,0.718,1.05,1.211C435.009,157.252,435.139,157.857,435.139,158.566z M433.332,158.644
			c0-0.82-0.27-1.449-0.806-1.886c-0.537-0.436-1.288-0.653-2.251-0.653h-1.777v5.254h1.621c1.029,0,1.821-0.226,2.378-0.674
			C433.054,160.236,433.332,159.556,433.332,158.644z"/>
		<path d="M444.074,167.423l-0.039-1.317c-0.533,0.526-1.076,0.907-1.626,1.143s-1.128,0.353-1.733,0.353
			c-0.561,0-1.039-0.072-1.436-0.216c-0.397-0.143-0.726-0.34-0.981-0.591s-0.446-0.546-0.565-0.884
			c-0.12-0.338-0.182-0.707-0.182-1.104c0-0.982,0.366-1.754,1.1-2.311c0.732-0.557,1.814-0.835,3.247-0.835h2.03v-0.859
			c0-0.579-0.186-1.043-0.557-1.392s-0.938-0.522-1.699-0.522c-0.553,0-1.099,0.062-1.636,0.187s-1.093,0.299-1.665,0.527v-1.533
			c0.215-0.078,0.454-0.154,0.718-0.229c0.265-0.074,0.542-0.142,0.835-0.199c0.293-0.059,0.601-0.105,0.918-0.143
			c0.318-0.037,0.642-0.054,0.967-0.054c0.593,0,1.127,0.063,1.603,0.195c0.475,0.131,0.877,0.327,1.206,0.596
			c0.329,0.268,0.581,0.602,0.757,1.006s0.264,0.879,0.264,1.426v6.758L444.074,167.423L444.074,167.423z M443.889,162.96h-2.157
			c-0.425,0-0.787,0.043-1.095,0.127c-0.307,0.084-0.557,0.205-0.752,0.361c-0.194,0.156-0.34,0.344-0.435,0.562
			c-0.095,0.219-0.143,0.465-0.143,0.737c0,0.189,0.029,0.369,0.089,0.542c0.059,0.173,0.151,0.325,0.282,0.459
			s0.3,0.239,0.509,0.317s0.463,0.117,0.762,0.117c0.391,0,0.838-0.119,1.343-0.356s1.036-0.614,1.597-1.128V162.96L443.889,162.96z
			"/>
		<path d="M448.771,157.619h1.514l0.068,1.582c0.286-0.338,0.562-0.62,0.829-0.845c0.269-0.226,0.529-0.405,0.786-0.542
			c0.257-0.138,0.52-0.232,0.786-0.288c0.267-0.057,0.543-0.083,0.83-0.083c1.01,0,1.772,0.298,2.29,0.894
			c0.518,0.597,0.776,1.493,0.776,2.69v6.396h-1.699v-6.26c0-0.768-0.144-1.336-0.431-1.704c-0.286-0.368-0.713-0.552-1.278-0.552
			c-0.209,0-0.412,0.031-0.61,0.093c-0.197,0.062-0.404,0.169-0.62,0.322c-0.215,0.153-0.446,0.359-0.697,0.62
			c-0.251,0.26-0.532,0.586-0.846,0.977v6.504h-1.698V157.619z"/>
		<path d="M468.049,162.003c0,0.24-0.004,0.443-0.01,0.605s-0.016,0.315-0.029,0.459h-6.885c0,1.002,0.279,1.771,0.84,2.31
			c0.562,0.538,1.367,0.807,2.422,0.807c0.287,0,0.572-0.013,0.859-0.034c0.287-0.022,0.562-0.055,0.83-0.093
			c0.268-0.039,0.521-0.083,0.767-0.133c0.245-0.049,0.47-0.103,0.679-0.16v1.396c-0.463,0.131-0.983,0.236-1.566,0.317
			s-1.188,0.122-1.812,0.122c-0.84,0-1.562-0.113-2.168-0.343c-0.605-0.229-1.102-0.559-1.488-0.99
			c-0.388-0.433-0.675-0.965-0.859-1.593s-0.278-1.339-0.278-2.134c0-0.688,0.101-1.343,0.298-1.958
			c0.198-0.615,0.488-1.155,0.869-1.621s0.85-0.835,1.401-1.107c0.552-0.273,1.182-0.41,1.885-0.41c0.685,0,1.289,0.106,1.816,0.322
			c0.526,0.215,0.972,0.52,1.333,0.912c0.361,0.394,0.635,0.872,0.82,1.437C467.956,160.677,468.049,161.306,468.049,162.003z
			 M466.281,161.759c0.02-0.436-0.023-0.835-0.127-1.195c-0.104-0.361-0.267-0.673-0.483-0.934c-0.217-0.26-0.489-0.464-0.815-0.609
			c-0.325-0.146-0.702-0.221-1.133-0.221c-0.371,0-0.709,0.072-1.016,0.216c-0.307,0.143-0.57,0.346-0.791,0.604
			s-0.4,0.572-0.537,0.938c-0.137,0.365-0.221,0.766-0.254,1.2H466.281L466.281,161.759z"/>
	</g>
	<g>
		<rect x="283.102" y="155.975" fill="none" width="73.164" height="20.931"/>
		<path d="M288.883,155.175h1.416l-0.254,1.904c0.338,0.032,0.68,0.073,1.021,0.127c0.342,0.053,0.658,0.112,0.951,0.186v1.504
			c-0.357-0.092-0.719-0.17-1.084-0.234c-0.365-0.063-0.723-0.113-1.074-0.146l-0.557,4.18c0.436,0.171,0.869,0.354,1.299,0.552
			c0.431,0.198,0.815,0.434,1.157,0.703c0.343,0.271,0.619,0.592,0.83,0.963s0.317,0.813,0.317,1.328
			c0,0.547-0.111,1.03-0.332,1.454c-0.221,0.425-0.531,0.781-0.928,1.074c-0.397,0.293-0.875,0.522-1.437,0.688
			s-1.175,0.265-1.847,0.297l-0.321,2.324h-1.426l0.321-2.324c-0.526-0.039-1.029-0.096-1.509-0.17
			c-0.479-0.075-0.894-0.157-1.245-0.25v-1.621c0.41,0.144,0.858,0.261,1.344,0.353c0.484,0.093,1.023,0.152,1.615,0.187
			l0.576-4.396c-0.423-0.162-0.84-0.338-1.25-0.526c-0.41-0.189-0.775-0.416-1.099-0.68s-0.584-0.574-0.786-0.933
			s-0.303-0.785-0.303-1.279c0-0.403,0.084-0.803,0.254-1.196c0.17-0.393,0.433-0.748,0.791-1.063
			c0.357-0.315,0.811-0.576,1.357-0.781c0.545-0.205,1.197-0.327,1.952-0.366L288.883,155.175z M288.443,158.496
			c-0.813,0.072-1.407,0.262-1.781,0.571s-0.562,0.704-0.562,1.187c0,0.449,0.155,0.818,0.465,1.108
			c0.309,0.29,0.77,0.556,1.381,0.796L288.443,158.496z M288.561,168.251c0.879-0.064,1.52-0.26,1.92-0.586
			c0.399-0.326,0.601-0.769,0.601-1.328c0-0.234-0.042-0.444-0.127-0.631c-0.085-0.186-0.211-0.353-0.381-0.502
			c-0.171-0.15-0.38-0.289-0.63-0.42c-0.252-0.132-0.545-0.261-0.885-0.392L288.561,168.251z"/>
		<path d="M315.016,160.917c0,0.521-0.098,1.037-0.293,1.547c-0.195,0.512-0.498,0.969-0.908,1.373
			c-0.409,0.404-0.934,0.729-1.571,0.98s-1.399,0.376-2.285,0.376h-1.582v4.58h-1.737V157.01h3.594c0.631,0,1.236,0.069,1.815,0.21
			c0.579,0.14,1.089,0.365,1.528,0.679s0.79,0.718,1.05,1.211C314.887,159.604,315.016,160.208,315.016,160.917z M313.209,160.996
			c0-0.82-0.27-1.449-0.807-1.885c-0.536-0.436-1.287-0.654-2.25-0.654h-1.777v5.254h1.621c1.029,0,1.82-0.225,2.378-0.674
			S313.209,161.908,313.209,160.996z"/>
		<path d="M323.952,169.775l-0.039-1.318c-0.534,0.527-1.076,0.908-1.626,1.144c-0.551,0.235-1.128,0.353-1.732,0.353
			c-0.561,0-1.039-0.072-1.437-0.216c-0.397-0.143-0.724-0.34-0.981-0.591c-0.257-0.251-0.445-0.546-0.566-0.884
			c-0.119-0.339-0.18-0.707-0.18-1.104c0-0.981,0.365-1.753,1.099-2.31c0.733-0.558,1.815-0.835,3.247-0.835h2.031v-0.859
			c0-0.58-0.187-1.043-0.558-1.392s-0.938-0.522-1.698-0.522c-0.554,0-1.1,0.062-1.637,0.187s-1.092,0.299-1.665,0.526v-1.533
			c0.215-0.077,0.454-0.153,0.718-0.229c0.264-0.074,0.543-0.143,0.836-0.199c0.293-0.059,0.598-0.105,0.918-0.143
			c0.318-0.037,0.641-0.055,0.967-0.055c0.592,0,1.125,0.064,1.602,0.195s0.877,0.328,1.206,0.596
			c0.329,0.269,0.581,0.603,0.757,1.007c0.176,0.403,0.264,0.879,0.264,1.426v6.758L323.952,169.775L323.952,169.775z
			 M323.766,165.312h-2.158c-0.422,0-0.787,0.043-1.094,0.127c-0.306,0.084-0.557,0.205-0.752,0.361s-0.34,0.344-0.435,0.562
			s-0.142,0.464-0.142,0.737c0,0.189,0.028,0.369,0.088,0.542c0.059,0.173,0.152,0.325,0.283,0.459
			c0.129,0.134,0.299,0.239,0.508,0.317s0.461,0.117,0.762,0.117c0.391,0,0.838-0.119,1.343-0.356s1.037-0.614,1.597-1.128V165.312
			L323.766,165.312z"/>
		<path d="M328.648,159.97h1.515l0.067,1.582c0.287-0.338,0.563-0.62,0.83-0.846c0.268-0.225,0.529-0.404,0.787-0.541
			c0.256-0.138,0.519-0.232,0.785-0.289c0.268-0.056,0.543-0.082,0.83-0.082c1.01,0,1.771,0.297,2.29,0.894s0.776,1.493,0.776,2.69
			v6.396h-1.699v-6.26c0-0.769-0.143-1.336-0.43-1.704s-0.713-0.553-1.279-0.553c-0.208,0-0.412,0.031-0.609,0.094
			c-0.199,0.062-0.406,0.169-0.621,0.322c-0.215,0.152-0.447,0.359-0.697,0.619c-0.25,0.261-0.532,0.586-0.846,0.978v6.504h-1.699
			V159.97L328.648,159.97z"/>
		<path d="M347.926,164.355c0,0.24-0.003,0.443-0.01,0.605s-0.016,0.315-0.029,0.459h-6.885c0,1.002,0.28,1.771,0.84,2.31
			c0.561,0.538,1.367,0.806,2.422,0.806c0.287,0,0.573-0.012,0.859-0.033c0.286-0.022,0.562-0.055,0.83-0.094
			s0.521-0.082,0.768-0.132c0.244-0.049,0.469-0.103,0.678-0.161v1.396c-0.461,0.131-0.984,0.236-1.566,0.316
			c-0.582,0.082-1.188,0.123-1.812,0.123c-0.84,0-1.562-0.113-2.168-0.343c-0.605-0.229-1.102-0.56-1.488-0.991
			s-0.674-0.964-0.859-1.592s-0.277-1.339-0.277-2.134c0-0.688,0.099-1.343,0.297-1.958c0.199-0.615,0.488-1.155,0.869-1.621
			s0.848-0.835,1.401-1.107c0.554-0.273,1.183-0.41,1.885-0.41c0.685,0,1.289,0.106,1.816,0.322c0.526,0.215,0.972,0.52,1.333,0.912
			s0.635,0.872,0.82,1.436C347.833,163.029,347.926,163.658,347.926,164.355z M346.159,164.111c0.021-0.436-0.022-0.835-0.127-1.195
			c-0.104-0.361-0.265-0.674-0.483-0.934c-0.218-0.26-0.49-0.464-0.814-0.609c-0.325-0.146-0.703-0.221-1.133-0.221
			c-0.371,0-0.709,0.072-1.017,0.215c-0.308,0.144-0.569,0.346-0.791,0.605c-0.221,0.259-0.399,0.572-0.537,0.938
			c-0.137,0.366-0.221,0.766-0.254,1.201H346.159L346.159,164.111z"/>
	</g>
	<g>
		<rect x="284.395" y="30.943" fill="none" width="74.42" height="20.931"/>
		<path d="M290.176,30.145h1.416l-0.254,1.904c0.338,0.033,0.68,0.075,1.021,0.127c0.342,0.052,0.658,0.114,0.951,0.186v1.504
			c-0.357-0.091-0.719-0.169-1.084-0.234s-0.723-0.114-1.074-0.146l-0.557,4.18c0.436,0.169,0.869,0.353,1.299,0.552
			c0.431,0.199,0.815,0.433,1.157,0.703c0.343,0.27,0.619,0.591,0.83,0.962s0.317,0.814,0.317,1.328
			c0,0.547-0.111,1.032-0.332,1.455c-0.221,0.423-0.531,0.781-0.928,1.074c-0.397,0.293-0.875,0.522-1.437,0.688
			s-1.175,0.265-1.847,0.298l-0.321,2.324h-1.426l0.321-2.324c-0.526-0.039-1.029-0.096-1.509-0.171
			c-0.479-0.075-0.894-0.158-1.245-0.249v-1.621c0.41,0.143,0.858,0.26,1.344,0.352c0.484,0.092,1.023,0.153,1.615,0.186
			l0.576-4.395c-0.423-0.163-0.84-0.338-1.25-0.527s-0.775-0.415-1.099-0.679c-0.323-0.264-0.584-0.575-0.786-0.933
			s-0.303-0.785-0.303-1.279c0-0.404,0.084-0.802,0.254-1.196s0.433-0.749,0.791-1.064c0.357-0.315,0.811-0.576,1.357-0.781
			c0.545-0.205,1.197-0.327,1.952-0.366L290.176,30.145z M289.736,33.464c-0.813,0.072-1.407,0.262-1.781,0.571
			c-0.374,0.309-0.562,0.705-0.562,1.187c0,0.449,0.155,0.819,0.465,1.108c0.309,0.289,0.77,0.555,1.381,0.796L289.736,33.464z
			 M289.854,43.22c0.879-0.065,1.52-0.26,1.92-0.586c0.399-0.326,0.601-0.768,0.601-1.328c0-0.234-0.042-0.444-0.127-0.63
			s-0.211-0.353-0.381-0.503c-0.171-0.15-0.38-0.29-0.63-0.42c-0.252-0.13-0.545-0.26-0.885-0.391L289.854,43.22z"/>
		<path d="M316.309,35.886c0,0.521-0.098,1.037-0.293,1.548c-0.195,0.511-0.498,0.968-0.908,1.372
			c-0.409,0.404-0.934,0.731-1.571,0.981s-1.399,0.376-2.285,0.376h-1.582v4.58h-1.737V31.98h3.594c0.631,0,1.236,0.07,1.815,0.21
			s1.089,0.366,1.528,0.679c0.439,0.312,0.79,0.716,1.05,1.211C316.18,34.575,316.309,35.176,316.309,35.886z M314.502,35.964
			c0-0.82-0.27-1.449-0.807-1.885c-0.536-0.436-1.287-0.654-2.25-0.654h-1.777v5.254h1.621c1.029,0,1.82-0.225,2.378-0.674
			S314.502,36.876,314.502,35.964z"/>
		<path d="M325.245,44.744l-0.039-1.318c-0.534,0.527-1.076,0.908-1.626,1.143c-0.551,0.235-1.128,0.352-1.732,0.352
			c-0.561,0-1.039-0.072-1.437-0.215c-0.397-0.143-0.724-0.34-0.981-0.591c-0.257-0.251-0.445-0.545-0.566-0.884
			c-0.119-0.339-0.18-0.707-0.18-1.104c0-0.983,0.365-1.753,1.099-2.31s1.815-0.835,3.247-0.835h2.031v-0.859
			c0-0.58-0.187-1.043-0.558-1.392s-0.938-0.522-1.698-0.522c-0.554,0-1.1,0.062-1.637,0.186s-1.092,0.299-1.665,0.527v-1.533
			c0.215-0.078,0.454-0.155,0.718-0.229c0.264-0.074,0.543-0.142,0.836-0.2s0.598-0.106,0.918-0.142
			c0.318-0.036,0.641-0.054,0.967-0.054c0.592,0,1.125,0.065,1.602,0.195s0.877,0.329,1.206,0.596
			c0.329,0.267,0.581,0.602,0.757,1.006c0.176,0.404,0.264,0.879,0.264,1.426v6.758L325.245,44.744L325.245,44.744z M325.059,40.28
			H322.9c-0.422,0-0.787,0.042-1.094,0.127c-0.306,0.085-0.557,0.205-0.752,0.361c-0.195,0.156-0.34,0.343-0.435,0.562
			c-0.095,0.219-0.142,0.464-0.142,0.737c0,0.189,0.028,0.37,0.088,0.542c0.059,0.172,0.152,0.326,0.283,0.459
			c0.129,0.133,0.299,0.239,0.508,0.317c0.209,0.078,0.461,0.117,0.762,0.117c0.391,0,0.838-0.119,1.343-0.356
			c0.505-0.237,1.037-0.614,1.597-1.128V40.28L325.059,40.28z"/>
		<path d="M329.941,34.939h1.515l0.067,1.582c0.287-0.338,0.563-0.62,0.83-0.845c0.268-0.225,0.529-0.405,0.787-0.542
			c0.256-0.137,0.519-0.233,0.785-0.288c0.268-0.055,0.543-0.083,0.83-0.083c1.01,0,1.771,0.298,2.29,0.894
			c0.519,0.596,0.776,1.493,0.776,2.69v6.396h-1.699v-6.26c0-0.768-0.143-1.336-0.43-1.704c-0.287-0.368-0.713-0.552-1.279-0.552
			c-0.208,0-0.412,0.031-0.609,0.093c-0.199,0.062-0.406,0.169-0.621,0.322c-0.215,0.153-0.447,0.36-0.697,0.62
			c-0.25,0.26-0.532,0.586-0.846,0.977v6.504h-1.699V34.939L329.941,34.939z"/>
		<path d="M349.219,39.323c0,0.241-0.003,0.443-0.01,0.605c-0.007,0.162-0.016,0.316-0.029,0.459h-6.885
			c0,1.002,0.28,1.772,0.84,2.31c0.561,0.538,1.367,0.806,2.422,0.806c0.287,0,0.573-0.011,0.859-0.034s0.562-0.054,0.83-0.093
			s0.521-0.083,0.768-0.132c0.244-0.049,0.469-0.103,0.678-0.161v1.396c-0.461,0.13-0.984,0.236-1.566,0.317
			s-1.188,0.122-1.812,0.122c-0.84,0-1.562-0.114-2.168-0.342c-0.605-0.229-1.102-0.558-1.488-0.991s-0.674-0.963-0.859-1.592
			c-0.186-0.629-0.277-1.339-0.277-2.134c0-0.69,0.099-1.343,0.297-1.958c0.199-0.615,0.488-1.156,0.869-1.621
			c0.381-0.465,0.848-0.835,1.401-1.108s1.183-0.41,1.885-0.41c0.685,0,1.289,0.107,1.816,0.322
			c0.526,0.215,0.972,0.519,1.333,0.913s0.635,0.873,0.82,1.436C349.126,37.997,349.219,38.627,349.219,39.323z M347.452,39.08
			c0.021-0.436-0.022-0.835-0.127-1.196c-0.104-0.361-0.265-0.672-0.483-0.933c-0.218-0.261-0.49-0.464-0.814-0.61
			c-0.325-0.146-0.703-0.22-1.133-0.22c-0.371,0-0.709,0.072-1.017,0.215s-0.569,0.345-0.791,0.605
			c-0.221,0.26-0.399,0.573-0.537,0.938c-0.137,0.365-0.221,0.765-0.254,1.201H347.452z"/>
	</g>
	<g>
		<rect x="147.083" y="157.536" fill="none" width="66.373" height="20.932"/>
		<path d="M152.865,156.735h1.416l-0.254,1.904c0.338,0.032,0.679,0.075,1.021,0.127c0.342,0.053,0.659,0.114,0.952,0.187v1.504
			c-0.358-0.091-0.719-0.169-1.084-0.233c-0.365-0.065-0.723-0.115-1.074-0.146l-0.557,4.18c0.436,0.169,0.869,0.354,1.299,0.553
			c0.43,0.198,0.815,0.434,1.157,0.703c0.342,0.269,0.619,0.59,0.83,0.961s0.317,0.813,0.317,1.328c0,0.547-0.111,1.032-0.332,1.455
			c-0.221,0.424-0.531,0.781-0.928,1.074s-0.875,0.521-1.436,0.688s-1.175,0.267-1.846,0.299l-0.322,2.324h-1.426l0.322-2.324
			c-0.527-0.039-1.03-0.098-1.509-0.172c-0.479-0.073-0.894-0.157-1.245-0.248v-1.621c0.41,0.144,0.858,0.261,1.343,0.352
			c0.485,0.092,1.024,0.153,1.616,0.186l0.576-4.395c-0.423-0.163-0.84-0.339-1.25-0.527c-0.41-0.188-0.776-0.414-1.099-0.679
			c-0.323-0.264-0.584-0.573-0.786-0.933c-0.202-0.359-0.303-0.784-0.303-1.279c0-0.402,0.084-0.802,0.254-1.195
			c0.17-0.395,0.433-0.748,0.791-1.064s0.811-0.576,1.357-0.781s1.198-0.327,1.953-0.365L152.865,156.735z M152.426,160.057
			c-0.814,0.07-1.408,0.262-1.782,0.57s-0.562,0.705-0.562,1.188c0,0.449,0.155,0.818,0.464,1.107s0.77,0.555,1.382,0.797
			L152.426,160.057z M152.542,169.811c0.879-0.064,1.519-0.261,1.919-0.586c0.4-0.324,0.601-0.769,0.601-1.328
			c0-0.233-0.042-0.443-0.127-0.629c-0.085-0.187-0.211-0.354-0.381-0.504c-0.17-0.148-0.379-0.289-0.63-0.42
			c-0.251-0.13-0.545-0.261-0.884-0.391L152.542,169.811z"/>
		<path d="M178.998,162.477c0,0.521-0.098,1.037-0.293,1.549s-0.498,0.969-0.908,1.371c-0.41,0.404-0.934,0.731-1.572,0.981
			c-0.638,0.25-1.4,0.376-2.285,0.376h-1.582v4.58h-1.738v-12.764h3.594c0.631,0,1.237,0.068,1.816,0.21
			c0.579,0.141,1.089,0.366,1.528,0.679s0.79,0.716,1.05,1.211C178.868,161.166,178.998,161.768,178.998,162.477z M177.19,162.557
			c0-0.82-0.269-1.449-0.806-1.886c-0.537-0.437-1.288-0.653-2.251-0.653h-1.777v5.254h1.621c1.029,0,1.821-0.226,2.378-0.674
			C176.913,164.149,177.19,163.467,177.19,162.557z"/>
		<path d="M187.934,171.335l-0.039-1.317c-0.534,0.526-1.076,0.907-1.626,1.143c-0.55,0.234-1.128,0.352-1.733,0.352
			c-0.56,0-1.039-0.07-1.436-0.215c-0.397-0.144-0.724-0.341-0.981-0.591c-0.257-0.25-0.446-0.545-0.566-0.884
			c-0.12-0.34-0.181-0.706-0.181-1.104c0-0.984,0.366-1.754,1.099-2.311c0.733-0.557,1.815-0.835,3.247-0.835h2.031v-0.859
			c0-0.579-0.186-1.044-0.557-1.392s-0.938-0.522-1.699-0.522c-0.553,0-1.099,0.062-1.636,0.187c-0.537,0.123-1.092,0.3-1.665,0.527
			v-1.533c0.215-0.078,0.454-0.155,0.718-0.229c0.264-0.073,0.542-0.142,0.835-0.2c0.293-0.058,0.599-0.105,0.918-0.142
			s0.641-0.054,0.967-0.054c0.592,0,1.126,0.064,1.602,0.195c0.476,0.129,0.877,0.328,1.206,0.596
			c0.329,0.267,0.581,0.603,0.757,1.006c0.176,0.402,0.264,0.879,0.264,1.426v6.758L187.934,171.335L187.934,171.335z
			 M187.748,166.873h-2.158c-0.423,0-0.788,0.042-1.094,0.127s-0.557,0.205-0.752,0.36c-0.195,0.156-0.34,0.344-0.435,0.562
			c-0.095,0.219-0.142,0.465-0.142,0.737c0,0.188,0.029,0.37,0.088,0.542s0.153,0.326,0.283,0.459s0.299,0.238,0.508,0.316
			s0.462,0.117,0.762,0.117c0.391,0,0.838-0.117,1.343-0.355c0.505-0.238,1.037-0.613,1.597-1.129V166.873z"/>
		<path d="M192.63,161.531h1.514l0.068,1.582c0.287-0.339,0.563-0.62,0.83-0.845c0.267-0.226,0.529-0.405,0.786-0.543
			c0.257-0.137,0.519-0.232,0.786-0.287c0.267-0.056,0.543-0.084,0.83-0.084c1.009,0,1.772,0.299,2.29,0.895
			c0.518,0.596,0.776,1.492,0.776,2.689v6.396h-1.699v-6.26c0-0.77-0.143-1.337-0.43-1.704c-0.287-0.367-0.713-0.552-1.279-0.552
			c-0.208,0-0.412,0.029-0.61,0.093c-0.198,0.063-0.405,0.17-0.62,0.321c-0.215,0.152-0.448,0.359-0.698,0.621
			c-0.25,0.261-0.532,0.586-0.845,0.977v6.504h-1.699V161.531L192.63,161.531z"/>
		<path d="M211.908,165.916c0,0.241-0.003,0.442-0.01,0.604c-0.007,0.164-0.016,0.315-0.029,0.459h-6.885
			c0,1.004,0.28,1.772,0.84,2.311s1.367,0.807,2.422,0.807c0.287,0,0.573-0.012,0.859-0.035c0.286-0.022,0.563-0.054,0.83-0.092
			c0.267-0.039,0.522-0.084,0.767-0.133c0.245-0.049,0.47-0.104,0.679-0.16v1.396c-0.462,0.13-0.985,0.235-1.567,0.317
			s-1.187,0.121-1.812,0.121c-0.84,0-1.562-0.113-2.168-0.342s-1.102-0.559-1.489-0.99c-0.387-0.434-0.674-0.964-0.859-1.593
			c-0.185-0.629-0.278-1.34-0.278-2.134c0-0.689,0.099-1.344,0.298-1.958c0.199-0.615,0.488-1.156,0.869-1.621
			s0.848-0.835,1.401-1.108c0.553-0.272,1.182-0.41,1.885-0.41c0.684,0,1.289,0.107,1.816,0.322s0.972,0.52,1.333,0.913
			s0.635,0.873,0.82,1.437C211.814,164.588,211.908,165.219,211.908,165.916z M210.141,165.671c0.02-0.437-0.023-0.835-0.127-1.196
			c-0.104-0.36-0.265-0.672-0.483-0.933c-0.218-0.261-0.49-0.464-0.815-0.61c-0.325-0.146-0.703-0.22-1.133-0.22
			c-0.371,0-0.709,0.071-1.016,0.216c-0.307,0.143-0.57,0.344-0.791,0.604c-0.221,0.26-0.4,0.573-0.537,0.938
			c-0.137,0.364-0.221,0.764-0.254,1.2H210.141L210.141,165.671z"/>
	</g>
	<g>
	</g>
	<g>
	</g>
	<g>
	</g>
	<g>
	</g>
	<g>
	</g>
	<g>
	</g>
	<g>
	</g>
	<g>
	</g>
	<g>
	</g>
	<g>
	</g>
	<g>
	</g>
	<g>
	</g>
	<g>
	</g>
	<g>
	</g>
	<g>
	</g>
</g>
</svg>
