<svg version="1.1" xmlns="http://www.w3.org/2000/svg" viewBox="0 0 461 103.5" width="922" height="207">
  <!-- svg-source:excalidraw -->
  
  <defs>
    <style>
      @font-face {
        font-family: "Virgil";
        src: url("https://excalidraw.com/FG_Virgil.woff2");
      }
      @font-face {
        font-family: "Cascadia";
        src: url("https://excalidraw.com/Cascadia.woff2");
      }
    </style>
  </defs>
  <g transform="translate(13.5 10) rotate(0 19.5 16)"><text x="0" y="23" font-family="Virgil, Segoe UI Emoji" font-size="20px" fill="#000000" text-anchor="start" style="white-space: pre;" direction="ltr">Key1</text></g><g transform="translate(10 61.5) rotate(0 25.5 16)"><text x="0" y="23" font-family="Virgil, Segoe UI Emoji" font-size="20px" fill="#000000" text-anchor="start" style="white-space: pre;" direction="ltr">Key2</text></g><g><g transform="translate(70.5 30.5) rotate(0 47.778686083098876 -2.1819269184023256)"><path d="M0.6150182370096444 -0.45468130744993684 C16.764075303450227 -1.1876938207695882, 80.25897187031806 -3.302181210493048, 96.07860808409751 -3.9091725293546915 M-0.5212359178997577 -1.7389929392002523 C15.548054819609971 -2.302469273811827, 79.33131323328243 -2.142249557779481, 95.1718318646215 -2.32406285604462" stroke="#000000" stroke-width="1" fill="none"></path></g></g><g><g transform="translate(69.5 84.5) rotate(0 48.20839586891236 -1.9416822390817003)"><path d="M-0.5493183966726064 -0.9483257833868265 C15.611980796232821 -1.5416517122338216, 80.73535484112799 -2.6197972440471253, 96.96611013449728 -3.2976976815611128 M1.3631507157348097 1.168199234995991 C17.451110696103427 0.20774494170521718, 80.66779726376757 -4.151614008949449, 96.52527249148116 -5.051563713159412" stroke="#000000" stroke-width="1" fill="none"></path></g></g><g><g transform="translate(164.76803650926797 30.461273980513226) rotate(0 0.7281566767022127 25.388897790852923)"><path d="M0.47683622203767295 -1.038726019486785 C0.6615601673784378 7.542350340199964, 1.8199389309001581 41.92968755966672, 2.1882768441364306 50.54060820341109 M-0.7319634907320143 1.0303388749435545 C-0.7598275683385609 9.854959544961648, 0.9540539734748615 43.36690768318871, 1.4797958910465376 51.81652160119264" stroke="#000000" stroke-width="1" fill="none"></path></g></g><g transform="translate(372 33.5) rotate(0 39.5 16)"><text x="0" y="23" font-family="Virgil, Segoe UI Emoji" font-size="20px" fill="#000000" text-anchor="start" style="white-space: pre;" direction="ltr">Address</text></g><g transform="translate(209.5 31.5) rotate(0 58 21)"><path d="M33.648888230138745 1.683750052242189 C42.704794547011694 -0.38778322424172407, 57.664127897569415 -1.0870389266347713, 68.38080574422203 -0.4780375004836763 C79.09748359087465 0.13096392566741866, 90.23434234770272 2.4661836940859754, 97.94895531005443 5.337758609148759 C105.66356827240614 8.209333524211543, 112.35911590795078 12.717693551767336, 114.6684835183323 16.751411989893025 C116.97785112871381 20.785130428018714, 115.8891064221166 25.869430470485774, 111.80516097234349 29.540069237902888 C107.72121552257038 33.21070800532, 99.24199030667208 36.843572214833834, 90.16481081969363 38.7752445943957 C81.08763133271518 40.70691697395757, 68.40800785495193 41.28410604913562, 57.342084050472785 41.13010351527409 C46.27616024599364 40.97610098141255, 32.58205129513233 40.03867837431173, 23.769267992818754 37.85122939122649 C14.956484690505182 35.66378040814125, 8.121166275479826 31.670233335588012, 4.465384236591348 28.005409616762634 C0.8096021977028691 24.340585897937256, -0.5621544064794812 19.767842368651202, 1.8345757594878833 15.862287078274228 C4.231305925455247 11.956731787897253, 13.117650371562373 6.915284749472017, 18.845765232395536 4.572077874500785 C24.5738800932287 2.2288709995295526, 32.678603638705034 2.162048544221522, 36.20326492448686 1.8030458284468338 C39.727926210268684 1.4440431126721454, 39.43206176990932 2.0386993262499384, 39.993732947086485 2.4180615798526546 M75.79695431292754 -0.5545940020226503 C86.22148434875781 0.5663039961616911, 96.73485064562144 5.947707074058613, 103.48559685134862 9.081919004531754 C110.2363430570758 12.216130935004895, 115.41900997853037 14.63459541247399, 116.30143154729059 18.250677580816195 C117.18385311605081 21.866759749158398, 114.28992927056086 27.290399876633227, 108.78012626390995 30.778412014584976 C103.27032325725904 34.26642415253672, 93.00383926347669 37.29596104363745, 83.24261350738513 39.17875040852668 C73.48138775129357 41.061539773415916, 60.87821936009655 42.65443337896286, 50.212771727360554 42.075148203920364 C39.54732409462456 41.49586302887787, 27.25057594397439 38.19226281072996, 19.24992771096916 35.70303935827171 C11.24927947796393 33.21381590581346, 4.865461998210092 30.560683811245354, 2.208882329329164 27.13980748917087 C-0.44769733955176383 23.718931167096386, -0.3711183544193708 18.85919223894538, 3.3104496976835946 15.177781425824799 C6.9920177497865605 11.496370612704219, 15.615010472534328 7.505600539169832, 24.298290641946956 5.051342610447385 C32.98157081135958 2.597084681724938, 47.2064560513568 1.1392521305363812, 55.41013071415936 0.45223385349011735 C63.61380537696191 -0.2347844235561466, 70.15316529409019 0.7460175888129351, 73.5203386187623 0.9292329481698012 C76.8875119434344 1.1124483075266671, 75.8320061007643 1.3513774441879054, 75.613170662192 1.5515260096313135" stroke="#000000" stroke-width="1" fill="none"></path></g><g transform="translate(218.5 34) rotate(0 46.5 16)"><text x="46.5" y="23" font-family="Virgil, Segoe UI Emoji" font-size="20px" fill="#000000" text-anchor="middle" style="white-space: pre;" direction="ltr">hash func</text></g><g><g transform="translate(169.5 51.5) rotate(0 19.086778166499016 0.20584498913027005)"><path d="M0.6888949993997813 -0.7494839731603861 C6.8204085274289055 -0.9933058126519123, 30.049812337135275 -0.9753408097972474, 36.259131575003266 -1.0597430173307658 M-0.40857385525479906 1.4714329955913126 C6.156462986177454 1.3914724385676285, 32.23484494517868 0.7036820532816153, 38.582130188252776 0.44631714979186654" stroke="#000000" stroke-width="1" fill="none"></path></g></g><g><g transform="translate(330.42789874799905 49.46439044574771) rotate(0 13.771053904721555 -0.014072907941482526)"><path d="M-0.34012551940977576 0.2010525707155466 C4.073224850904845 0.08320309603244407, 20.89356796300363 -0.5487325105055997, 25.48074226215126 -0.811713287068585 M1.6821698535606266 -0.7389987749978901 C6.583199019928181 -0.633683978564736, 23.66252797687751 0.7100971953213383, 27.882233328852973 0.7835674711856448" stroke="#000000" stroke-width="1" fill="none"></path></g><g transform="translate(330.42789874799905 49.46439044574771) rotate(0 13.771053904721555 -0.014072907941482526)"><path d="M15.628975598511913 3.962421954758022 C18.236439815734563 5.019834695271234, 20.325036023790965 3.702801456735181, 26.83961082225494 2.0855131566593106 M14.798335639632318 4.700719859774856 C18.912880994358805 3.4186702587997555, 21.399894190247206 2.703878827368327, 27.83762464670144 1.0749353956148557" stroke="#000000" stroke-width="1" fill="none"></path></g><g transform="translate(330.42789874799905 49.46439044574771) rotate(0 13.771053904721555 -0.014072907941482526)"><path d="M16.090300667178177 -4.948401164990151 C18.59001802577927 -1.9611423783049862, 20.578635863406436 -1.3470220004307794, 26.83961082225494 2.0855131566593106 M15.259660708298584 -4.210103259973317 C19.24025030400667 -3.3151721771690705, 21.614507588846944 -1.8520026710759985, 27.83762464670144 1.0749353956148557" stroke="#000000" stroke-width="1" fill="none"></path></g></g></svg>